<svg version="1.1" xmlns="http://www.w3.org/2000/svg" viewBox="0 0 687.9390180690442 632.5409041870455" width="687.9390180690442" height="632.5409041870455" filter="invert(93%) hue-rotate(180deg)" class="excalidraw-svg">
  <!-- svg-source:excalidraw -->
  
  <defs>
    <style class="style-fonts">
      @font-face {
        font-family: "Virgil";
        src: url("https://excalidraw.com/Virgil.woff2");
      }
      @font-face {
        font-family: "Cascadia";
        src: url("https://excalidraw.com/Cascadia.woff2");
      }
      @font-face {
        font-family: "Assistant";
        src: url("https://excalidraw.com/Assistant-Regular.woff2");
      }
    </style>
    
  </defs>
  <g stroke-linecap="round" transform="translate(10 96.90593538831084) rotate(0 85.2251467723234 48.091320320351656)"><path d="M14.89 19.57 C14.89 19.57, 14.89 19.57, 14.89 19.57 M14.89 19.57 C14.89 19.57, 14.89 19.57, 14.89 19.57 M5.18 42.93 C10.31 33.94, 19.39 26.71, 32.08 11.99 M5.18 42.93 C12.01 35.68, 18.59 26.47, 32.08 11.99 M5.97 54.21 C18.32 38.77, 32.27 22.38, 45.33 8.93 M5.97 54.21 C16.06 43.06, 24.66 32.31, 45.33 8.93 M8.07 63.99 C24.22 44.34, 40.63 26.87, 57.93 6.63 M8.07 63.99 C18.89 52.57, 29.46 38.53, 57.93 6.63 M13.45 69.99 C26.73 53.55, 40.21 41.35, 70.53 4.33 M13.45 69.99 C31.76 49.02, 50.32 26.04, 70.53 4.33 M18.83 76 C36.22 53.46, 54.75 33.7, 83.13 2.04 M18.83 76 C37.9 54.18, 57.69 33.55, 83.13 2.04 M24.22 82 C37.58 62.73, 54.48 46.67, 93.1 2.76 M24.22 82 C41.29 61.27, 59.75 40.31, 93.1 2.76 M32.22 84.99 C48.98 64.56, 67.67 43.81, 102.42 4.23 M32.22 84.99 C55.97 56.72, 80.43 29.75, 102.42 4.23 M39.57 88.72 C58.48 66.81, 78.27 40.79, 112.39 4.95 M39.57 88.72 C56.4 69.38, 73.96 49.21, 112.39 4.95 M47.58 91.71 C71.59 62.36, 96.68 33.84, 121.06 7.18 M47.58 91.71 C73.36 61.73, 100.84 31.14, 121.06 7.18 M55.58 94.69 C85.29 63.61, 109.35 29.17, 129.06 10.17 M55.58 94.69 C75.17 71.87, 94.6 50.4, 129.06 10.17 M65.56 95.41 C92.07 68.93, 117.38 37.83, 137.07 13.15 M65.56 95.41 C81.32 77.2, 98.26 58.15, 137.07 13.15 M75.53 96.13 C98.21 68.06, 121.68 40.64, 145.07 16.13 M75.53 96.13 C102.38 65.16, 129.17 34.6, 145.07 16.13 M84.85 97.61 C103.55 77.15, 120.53 56.73, 153.08 19.12 M84.85 97.61 C109.98 69.7, 133.51 41.28, 153.08 19.12 M94.17 99.08 C108.68 85.23, 118.83 68.72, 158.46 25.12 M94.17 99.08 C107.85 82.43, 124.25 65.01, 158.46 25.12 M106.11 97.54 C126 72.63, 145.26 51.79, 163.84 31.12 M106.11 97.54 C122.17 76.99, 139.2 57, 163.84 31.12 M118.05 96 C131.89 80.87, 144.8 65.33, 169.22 37.13 M118.05 96 C132.96 79.4, 148.07 63.31, 169.22 37.13 M130.65 93.7 C142.27 81.05, 150.85 69.16, 170.67 47.66 M130.65 93.7 C142 80.16, 154.49 67.96, 170.67 47.66" stroke="#ffc9c9" stroke-width="1" fill="none"/><path d="M117.14 4.28 C128.62 6.36, 141.68 11.48, 149.98 16.62 C158.28 21.76, 163.57 28.48, 166.92 35.12 C170.27 41.77, 172.23 49.72, 170.08 56.51 C167.94 63.3, 161.19 70.09, 154.03 75.87 C146.87 81.66, 137.74 87.88, 127.12 91.21 C116.5 94.55, 102.61 95.61, 90.29 95.87 C77.97 96.14, 64.56 95.37, 53.21 92.8 C41.85 90.24, 30.38 85.88, 22.18 80.48 C13.99 75.08, 7.37 67.1, 4.02 60.43 C0.67 53.75, 0.26 47.26, 2.08 40.44 C3.9 33.62, 8.01 25.14, 14.92 19.53 C21.83 13.92, 32.48 9.98, 43.52 6.76 C54.55 3.53, 67.7 0.37, 81.13 0.17 C94.57 -0.02, 116.06 4.34, 124.13 5.6 C132.21 6.86, 130.35 7.09, 129.6 7.72 M50.62 4.05 C60.8 0.6, 73.63 -0.6, 85.89 -0.43 C98.14 -0.25, 112.98 1.98, 124.16 5.11 C135.34 8.24, 145.46 12.78, 152.99 18.35 C160.52 23.92, 166.79 31.61, 169.32 38.54 C171.85 45.48, 171.09 53.44, 168.16 59.96 C165.23 66.47, 159.77 72.1, 151.75 77.65 C143.74 83.19, 131.25 90.07, 120.07 93.23 C108.89 96.4, 97 97.26, 84.66 96.65 C72.32 96.05, 57.02 92.59, 46.02 89.6 C35.03 86.61, 25.97 83.76, 18.68 78.71 C11.38 73.65, 4.71 66.1, 2.23 59.28 C-0.25 52.45, 1.02 44.64, 3.79 37.74 C6.56 30.83, 11.34 23.33, 18.86 17.84 C26.38 12.35, 43.69 6.81, 48.89 4.79 C54.1 2.77, 49.6 5.1, 50.09 5.71" stroke="#1e1e1e" stroke-width="2" fill="none"/></g><g stroke-linecap="round" transform="translate(209.83722116188676 217.61181736444743) rotate(0 85.2251467723234 48.091320320351656)"><path d="M5.84 30.25 C5.84 30.25, 5.84 30.25, 5.84 30.25 M5.84 30.25 C5.84 30.25, 5.84 30.25, 5.84 30.25 M0.72 48.33 C9.56 38.33, 20.6 25.96, 32.87 11.35 M0.72 48.33 C13.13 33.51, 26.27 18.71, 32.87 11.35 M3.48 57.35 C16.94 43.03, 28.98 27.35, 47.44 6.79 M3.48 57.35 C15.6 43.92, 26.57 30.59, 47.44 6.79 M7.55 64.86 C24.89 46.65, 40.4 29.67, 62 2.22 M7.55 64.86 C27.31 41.7, 46.72 19.62, 62 2.22 M11.62 72.38 C25.35 58.37, 34.85 45.46, 73.29 1.43 M11.62 72.38 C34.26 44.09, 59.52 16.57, 73.29 1.43 M18.31 76.87 C40.65 50.58, 61.41 25.55, 83.92 1.4 M18.31 76.87 C34.83 59.66, 49.58 42.54, 83.92 1.4 M25.01 81.36 C42.19 62.19, 61.54 41.04, 95.21 0.61 M25.01 81.36 C44.95 58.74, 64.63 36.41, 95.21 0.61 M32.36 85.1 C56.82 53.36, 85.12 25.8, 104.52 2.09 M32.36 85.1 C58.42 55.68, 85.65 24.49, 104.52 2.09 M39.71 88.84 C68.62 56.18, 97.81 23.09, 113.19 4.32 M39.71 88.84 C56.68 70.26, 74.02 49.51, 113.19 4.32 M49.03 90.32 C68.71 69.08, 89.18 46.06, 121.85 6.54 M49.03 90.32 C71.75 63.12, 95.05 37.48, 121.85 6.54 M57.69 92.55 C77.09 67.7, 99.65 45.03, 130.51 8.77 M57.69 92.55 C74.8 72.95, 92.55 52.95, 130.51 8.77 M67.01 94.02 C83.97 73.25, 102.85 48.27, 138.52 11.76 M67.01 94.02 C88.51 68.45, 111.4 42.39, 138.52 11.76 M76.32 95.5 C98.69 70.85, 121.35 44.59, 145.21 16.25 M76.32 95.5 C94.18 74.39, 113.32 53.34, 145.21 16.25 M86.95 95.46 C103.76 77.17, 120.25 54.23, 152.56 19.99 M86.95 95.46 C112.24 65.26, 137.15 36.35, 152.56 19.99 M97.58 95.43 C110.5 80.61, 123.47 66.26, 159.25 24.49 M97.58 95.43 C111 81.22, 123.52 66.19, 159.25 24.49 M108.87 94.64 C127.22 76.09, 143.55 54.43, 163.32 32 M108.87 94.64 C121.45 79.69, 134.45 65.72, 163.32 32 M122.78 90.83 C138.57 72.02, 154.8 53.82, 167.39 39.51 M122.78 90.83 C135.66 76.94, 147.19 62.29, 167.39 39.51 M138.66 84.76 C150.34 73.41, 161.65 58.87, 169.49 49.29 M138.66 84.76 C148.83 71.67, 160.34 58.68, 169.49 49.29" stroke="#ffc9c9" stroke-width="1" fill="none"/><path d="M60.51 1.97 C71.53 -0.66, 86.96 -0.93, 99.03 0.22 C111.1 1.36, 122.86 4.79, 132.93 8.84 C143 12.89, 153.28 18.55, 159.45 24.52 C165.61 30.48, 169.09 37.86, 169.93 44.62 C170.77 51.38, 169.12 58.76, 164.49 65.09 C159.87 71.41, 151.19 77.65, 142.17 82.56 C133.15 87.47, 122.12 92.41, 110.38 94.55 C98.63 96.68, 84.04 96.47, 71.7 95.38 C59.36 94.28, 46.58 92, 36.35 87.97 C26.13 83.94, 16.44 77.38, 10.35 71.2 C4.25 65.02, 0.59 57.67, -0.2 50.89 C-0.98 44.1, 1.14 36.7, 5.64 30.48 C10.14 24.27, 16.44 18.45, 26.82 13.6 C37.19 8.75, 59.51 3.45, 67.9 1.4 C76.3 -0.65, 76.93 0.72, 77.19 1.3 M77.68 1.24 C89.21 0.03, 105.15 1.17, 116.89 3.74 C128.63 6.3, 139.87 11.37, 148.13 16.64 C156.39 21.91, 162.95 29.06, 166.45 35.35 C169.96 41.64, 170.99 47.5, 169.14 54.37 C167.29 61.24, 162.17 70.71, 155.36 76.57 C148.56 82.44, 139.11 86.33, 128.31 89.58 C117.51 92.82, 102.95 95.5, 90.57 96.03 C78.2 96.56, 65.4 95.51, 54.05 92.74 C42.69 89.98, 30.82 84.7, 22.46 79.45 C14.1 74.19, 7.21 67.54, 3.88 61.21 C0.55 54.88, 0.83 48.2, 2.46 41.48 C4.09 34.77, 6.72 26.99, 13.66 20.92 C20.6 14.85, 33.36 8.53, 44.09 5.05 C54.82 1.58, 72.2 0.83, 78.06 0.07 C83.91 -0.7, 78.95 -0.21, 79.21 0.48" stroke="#1e1e1e" stroke-width="2" fill="none"/></g><g stroke-linecap="round" transform="translate(427.77004240484086 310.14198718335456) rotate(0 85.2251467723234 48.091320320351656)"><path d="M15.85 20.4 C15.85 20.4, 15.85 20.4, 15.85 20.4 M15.85 20.4 C15.85 20.4, 15.85 20.4, 15.85 20.4 M1.55 49.05 C14.32 34.89, 22.75 22.36, 34.35 11.31 M1.55 49.05 C10.7 38.97, 19.14 28.59, 34.35 11.31 M3 59.58 C16.51 42.8, 30.86 27.96, 49.58 6 M3 59.58 C14.97 46.91, 26.32 33.01, 49.58 6 M7.72 66.34 C25.53 44.63, 39.95 26.27, 62.17 3.7 M7.72 66.34 C18.01 53.6, 29.7 41.97, 62.17 3.7 M13.76 71.59 C34.51 51.65, 50.66 27.41, 74.12 2.15 M13.76 71.59 C26.97 57.22, 39.34 42.01, 74.12 2.15 M19.14 77.59 C33.27 59.25, 48.03 44.41, 86.06 0.61 M19.14 77.59 C36.98 56.83, 55.24 34.68, 86.06 0.61 M25.84 82.08 C52.46 51.79, 79.12 20.62, 95.38 2.08 M25.84 82.08 C47.32 56.88, 68.32 31.97, 95.38 2.08 M33.84 85.07 C51.23 64.09, 65.97 45.84, 105.35 2.8 M33.84 85.07 C57.95 59.01, 81.39 31.68, 105.35 2.8 M41.85 88.05 C63.48 60.02, 89.4 33.27, 115.33 3.52 M41.85 88.05 C69.63 54.71, 98.13 22.34, 115.33 3.52 M49.85 91.04 C76.31 60.91, 102.37 30.2, 123.33 6.51 M49.85 91.04 C67.15 71.81, 84.98 50.23, 123.33 6.51 M58.51 93.27 C78.59 68.43, 99.47 43.16, 131.34 9.49 M58.51 93.27 C78.54 70.71, 99.99 45.52, 131.34 9.49 M68.49 93.99 C95.96 63.5, 121.88 31.28, 139.34 12.48 M68.49 93.99 C89.77 70.35, 109.44 46.75, 139.34 12.48 M77.81 95.46 C97.16 73.91, 117.79 48.45, 147.35 15.46 M77.81 95.46 C99.92 69.4, 121.98 42.71, 147.35 15.46 M87.12 96.94 C113.98 70.34, 136.32 41.07, 153.39 20.71 M87.12 96.94 C102.49 78.63, 119.32 60.87, 153.39 20.71 M99.72 94.64 C118.33 71.27, 141.08 49.01, 159.42 25.96 M99.72 94.64 C123.51 67.13, 146.22 40.32, 159.42 25.96 M112.32 92.34 C128.01 72.58, 144.51 52.36, 164.81 31.96 M112.32 92.34 C125.11 78.89, 135.87 64.58, 164.81 31.96 M124.26 90.8 C134.61 76.64, 144.87 65.86, 168.22 40.23 M124.26 90.8 C138.78 75.79, 152.52 60.16, 168.22 40.23 M140.8 83.97 C151.76 73.29, 162.59 59.55, 168.35 52.27 M140.8 83.97 C148.91 74.79, 155.78 65.24, 168.35 52.27" stroke="#a5d8ff" stroke-width="1" fill="none"/><path d="M80.79 0.37 C92.36 -0.54, 107.59 1.46, 118.99 4.12 C130.38 6.79, 141.07 11.27, 149.16 16.34 C157.24 21.41, 164.31 27.95, 167.52 34.52 C170.73 41.09, 170.56 48.72, 168.41 55.77 C166.26 62.82, 161.82 71.08, 154.61 76.83 C147.41 82.57, 136.2 86.97, 125.18 90.24 C114.16 93.51, 100.88 96.22, 88.48 96.44 C76.09 96.67, 62.12 94.48, 50.8 91.6 C39.49 88.72, 28.61 84.26, 20.57 79.17 C12.54 74.08, 5.94 67.51, 2.61 61.05 C-0.72 54.58, -1.65 47.2, 0.58 40.39 C2.82 33.59, 8.47 25.97, 16.03 20.2 C23.58 14.43, 33.99 9.27, 45.93 5.77 C57.88 2.28, 79.61 -0.1, 87.69 -0.77 C95.78 -1.44, 94.36 0.96, 94.44 1.76 M116.51 4.5 C127.77 6.39, 139.01 11.94, 147.3 16.67 C155.59 21.39, 162.58 26.21, 166.25 32.85 C169.91 39.49, 170.96 49.47, 169.3 56.48 C167.65 63.49, 163.35 69.36, 156.32 74.89 C149.29 80.41, 137.85 86.14, 127.11 89.65 C116.37 93.16, 104.04 95.62, 91.87 95.94 C79.69 96.26, 65.55 94.26, 54.07 91.59 C42.6 88.91, 31.15 84.65, 23.03 79.89 C14.91 75.12, 9.24 69.48, 5.35 63 C1.47 56.52, -2.07 48.22, -0.28 41.01 C1.51 33.8, 9.11 25.51, 16.08 19.75 C23.05 13.98, 31.07 9.81, 41.52 6.45 C51.97 3.08, 66.32 0.18, 78.77 -0.47 C91.22 -1.11, 110.3 1.92, 116.24 2.56 C122.18 3.2, 114.99 2.76, 114.43 3.39" stroke="#1e1e1e" stroke-width="2" fill="none"/></g><g stroke-linecap="round" transform="translate(312.10738100807646 10) rotate(0 85.2251467723234 48.091320320351656)"><path d="M11.59 24.65 C11.59 24.65, 11.59 24.65, 11.59 24.65 M11.59 24.65 C11.59 24.65, 11.59 24.65, 11.59 24.65 M2.53 47.25 C11.6 37.46, 19.38 27.18, 35.34 9.52 M2.53 47.25 C12.21 35.54, 22.31 24.76, 35.34 9.52 M5.29 56.28 C14.56 47.52, 22.54 36.65, 41.37 14.77 M5.29 56.28 C16.9 42.18, 26.85 29.84, 41.37 14.77 M7.39 66.05 C15.33 54.35, 26.45 45.2, 55.28 10.96 M7.39 66.05 C23.33 49.77, 36.79 31.46, 55.28 10.96 M13.43 71.3 C26.84 57.48, 38.22 42.41, 73.13 2.62 M13.43 71.3 C26.56 55.39, 39.94 41.07, 73.13 2.62 M19.47 76.55 C36.22 57.17, 53.63 34.86, 83.76 2.59 M19.47 76.55 C44.23 47.96, 69 19.22, 83.76 2.59 M25.51 81.8 C47.2 56.64, 67.64 31.63, 93.74 3.31 M25.51 81.8 C41.55 62.63, 56.33 44.99, 93.74 3.31 M31.54 87.05 C56.73 61.24, 80.11 33.62, 103.71 4.03 M31.54 87.05 C53.49 59.82, 77.92 33.25, 103.71 4.03 M40.21 89.28 C67.19 55.61, 95.08 24.35, 112.37 6.26 M40.21 89.28 C66.04 59.58, 91.67 29.72, 112.37 6.26 M48.21 92.26 C65.28 74.21, 83.35 51.28, 121.03 8.49 M48.21 92.26 C68.89 67.23, 90.02 42.3, 121.03 8.49 M56.87 94.49 C76.56 72.87, 98.93 46.11, 129.7 10.72 M56.87 94.49 C84.98 63.36, 112.01 31.07, 129.7 10.72 M65.53 96.72 C87.57 72.36, 106.73 48.39, 138.36 12.95 M65.53 96.72 C86.12 73.32, 107.61 47.74, 138.36 12.95 M75.51 97.44 C97.94 71.07, 120.08 42.98, 147.02 15.18 M75.51 97.44 C103.42 68.13, 128.73 37.22, 147.02 15.18 M86.14 97.4 C100.81 78.5, 119.11 60.66, 153.06 20.42 M86.14 97.4 C108.11 71.07, 131.95 45.6, 153.06 20.42 M96.77 97.37 C121.72 68.93, 144.47 41.38, 159.09 25.67 M96.77 97.37 C116.28 74.15, 136.36 50.43, 159.09 25.67 M104.77 100.35 C119.94 85.35, 131.17 68.55, 165.13 30.92 M104.77 100.35 C119.37 82.45, 134.08 66.04, 165.13 30.92 M118.03 97.3 C134.94 80.72, 150.65 63, 167.89 39.94 M118.03 97.3 C136.38 76.94, 154.98 54.9, 167.89 39.94 M135.88 88.96 C146.44 76.99, 154.55 64.36, 171.3 48.21 M135.88 88.96 C144.59 78.19, 154.65 65.46, 171.3 48.21" stroke="#ffec99" stroke-width="1" fill="none"/><path d="M70.75 -0.03 C81.97 -1.74, 96.44 0.46, 108.47 2.49 C120.49 4.51, 133.66 7.63, 142.91 12.14 C152.16 16.66, 159.37 23.2, 163.98 29.57 C168.59 35.93, 171.44 43.37, 170.58 50.32 C169.72 57.28, 164.99 65.14, 158.81 71.27 C152.63 77.4, 143.45 83.17, 133.5 87.09 C123.54 91, 111.01 93.62, 99.09 94.76 C87.17 95.89, 73.75 95.56, 61.97 93.89 C50.18 92.21, 37.66 89.4, 28.39 84.71 C19.11 80.01, 11.14 72.34, 6.3 65.7 C1.47 59.06, -1.48 51.7, -0.62 44.89 C0.23 38.07, 5.41 30.72, 11.45 24.81 C17.48 18.89, 23.94 13.48, 35.59 9.4 C47.25 5.32, 72.19 1.58, 81.38 0.32 C90.58 -0.93, 90.78 0.96, 90.77 1.87 M76.7 0.87 C88.31 -0.73, 101.45 -0.48, 112.87 1.7 C124.29 3.89, 136.46 8.97, 145.23 13.99 C153.99 19, 161.56 25.23, 165.46 31.79 C169.36 38.36, 170.12 46.2, 168.63 53.41 C167.15 60.61, 162.75 69.33, 156.55 75.01 C150.36 80.7, 141.71 83.8, 131.46 87.51 C121.21 91.22, 107.63 96.4, 95.06 97.26 C82.49 98.12, 67.68 95.14, 56.03 92.66 C44.38 90.18, 33.76 87.11, 25.14 82.38 C16.51 77.64, 8.51 71.01, 4.28 64.25 C0.06 57.49, -1.52 48.76, -0.22 41.8 C1.09 34.83, 5.7 28.3, 12.1 22.48 C18.5 16.65, 27.79 10.3, 38.2 6.83 C48.61 3.36, 68.55 2.46, 74.55 1.65 C80.56 0.85, 74.09 1.31, 74.25 2" stroke="#1e1e1e" stroke-width="2" fill="none"/></g><g stroke-linecap="round" transform="translate(507.4887245243974 147.87090341009636) rotate(0 85.2251467723234 48.091320320351656)"><path d="M8.08 28.22 C8.08 28.22, 8.08 28.22, 8.08 28.22 M8.08 28.22 C8.08 28.22, 8.08 28.22, 8.08 28.22 M0.99 48.56 C10.27 36.59, 20.4 26.61, 33.79 10.83 M0.99 48.56 C9.42 39.9, 17.22 30.08, 33.79 10.83 M4.4 56.83 C19.01 38.96, 30.18 24.34, 48.36 6.26 M4.4 56.83 C12.52 46.46, 22.1 37.26, 48.36 6.26 M7.82 65.1 C26.71 47.26, 41.07 25.09, 62.27 2.46 M7.82 65.1 C19.77 52.17, 30.84 38.45, 62.27 2.46 M12.54 71.85 C25.46 54.86, 39.02 41.4, 74.21 0.91 M12.54 71.85 C28.95 52.77, 45.77 32.27, 74.21 0.91 M19.24 76.35 C44.08 48.15, 68.97 19.02, 84.19 1.63 M19.24 76.35 C39.34 52.78, 58.95 29.48, 84.19 1.63 M25.93 80.84 C42.72 60.56, 56.87 43, 94.82 1.6 M25.93 80.84 C49.18 55.75, 71.75 29.43, 94.82 1.6 M31.97 86.09 C53.39 58.3, 79.11 31.8, 104.79 2.32 M31.97 86.09 C59.5 53.04, 87.75 20.96, 104.79 2.32 M39.97 89.08 C66.44 58.95, 92.49 28.24, 113.45 4.55 M39.97 89.08 C57.27 69.85, 75.1 48.27, 113.45 4.55 M49.29 90.55 C69.56 65.48, 90.63 39.99, 122.77 6.02 M49.29 90.55 C69.5 67.78, 91.13 42.38, 122.77 6.02 M57.95 92.78 C86.44 61.18, 113.34 27.82, 131.43 8.25 M57.95 92.78 C80.01 68.27, 100.46 43.79, 131.43 8.25 M67.27 94.25 C87.38 71.83, 108.78 45.49, 139.44 11.24 M67.27 94.25 C90.24 67.19, 113.15 39.52, 139.44 11.24 M77.9 94.22 C105.5 66.81, 128.56 36.7, 146.13 15.73 M77.9 94.22 C93.75 75.38, 111.04 57.09, 146.13 15.73 M87.88 94.94 C108.28 69.49, 132.79 45.21, 152.83 20.22 M87.88 94.94 C113.74 64.99, 138.54 35.78, 152.83 20.22 M98.51 94.91 C116.95 71.99, 136.25 48.56, 159.52 24.72 M98.51 94.91 C113.29 79.19, 126.01 62.61, 159.52 24.72 M109.79 94.12 C122.71 77, 135.59 63.21, 164.25 31.48 M109.79 94.12 C127.66 75.41, 144.65 56.04, 164.25 31.48 M123.7 90.31 C140.51 72.8, 157.34 52.17, 167.66 39.74 M123.7 90.31 C136.54 75.82, 148.09 60.87, 167.66 39.74 M138.27 85.75 C145.05 77.28, 154.07 64.59, 169.1 50.27 M138.27 85.75 C144.48 78.56, 151.32 70.37, 169.1 50.27" stroke="#ffec99" stroke-width="1" fill="none"/><path d="M102.49 1.36 C114.13 1.95, 126.78 5.24, 136.54 9.36 C146.3 13.48, 155.47 19.69, 161.05 26.06 C166.63 32.44, 169.89 40.4, 170.01 47.6 C170.12 54.79, 166.91 62.91, 161.75 69.26 C156.58 75.61, 148.25 81.4, 139.03 85.67 C129.81 89.94, 118.42 93.43, 106.42 94.87 C94.43 96.32, 79.29 95.71, 67.04 94.34 C54.79 92.96, 42.56 90.89, 32.94 86.63 C23.31 82.37, 14.66 75.01, 9.29 68.76 C3.93 62.51, 0.94 55.88, 0.75 49.11 C0.56 42.33, 2.97 34.51, 8.16 28.12 C13.36 21.73, 22.29 15.28, 31.92 10.79 C41.55 6.29, 53.19 2.64, 65.95 1.14 C78.71 -0.36, 100.24 1.24, 108.49 1.77 C116.74 2.31, 115.76 3.64, 115.45 4.33 M84.41 -1.32 C96.12 -2.24, 110.37 0.31, 121.8 3.61 C133.23 6.9, 145.46 12.89, 152.99 18.46 C160.52 24.03, 164.17 30.58, 166.98 37.03 C169.79 43.47, 172.45 50.32, 169.85 57.11 C167.24 63.89, 159.16 72.16, 151.33 77.75 C143.5 83.35, 133.78 87.71, 122.87 90.66 C111.97 93.62, 98.44 95.45, 85.9 95.47 C73.37 95.49, 58.86 93.87, 47.67 90.78 C36.49 87.69, 26.44 82.34, 18.77 76.93 C11.09 71.52, 4.2 65.07, 1.63 58.32 C-0.95 51.57, 0.45 43.21, 3.34 36.41 C6.23 29.62, 11.44 22.68, 18.96 17.54 C26.48 12.4, 37.56 8.38, 48.46 5.57 C59.36 2.76, 78.48 1.49, 84.37 0.69 C90.26 -0.12, 83.82 -0.12, 83.8 0.74" stroke="#1e1e1e" stroke-width="2" fill="none"/></g><g stroke-linecap="round" transform="translate(20.6040827811521 390.15380147499627) rotate(0 85.2251467723234 48.091320320351656)"><path d="M9.91 25.84 C9.91 25.84, 9.91 25.84, 9.91 25.84 M9.91 25.84 C9.91 25.84, 9.91 25.84, 9.91 25.84 M0.2 49.2 C9.13 40.83, 16.78 30.35, 34.98 9.2 M0.2 49.2 C11.41 35.59, 20.96 23.72, 34.98 9.2 M3.62 57.47 C11.01 46.36, 21.6 37.82, 48.89 5.4 M3.62 57.47 C18.73 42.12, 31.39 24.73, 48.89 5.4 M7.03 65.74 C19.6 52.88, 30.12 38.8, 62.8 1.59 M7.03 65.74 C19.25 50.84, 31.73 37.55, 62.8 1.59 M12.41 71.74 C28.46 53.2, 45.14 31.72, 74.08 0.8 M12.41 71.74 C36.15 44.35, 59.91 16.77, 74.08 0.8 M19.11 76.23 C40.02 52.01, 59.65 27.92, 84.71 0.76 M19.11 76.23 C34.56 57.77, 48.73 40.81, 84.71 0.76 M25.14 81.48 C49.48 56.66, 71.99 30.03, 94.69 1.48 M25.14 81.48 C46.26 55.23, 69.85 29.64, 94.69 1.48 M31.84 85.98 C59.32 51.73, 87.73 19.89, 105.32 1.45 M31.84 85.98 C58.14 55.74, 84.24 25.34, 105.32 1.45 M39.84 88.96 C57.22 70.55, 75.6 47.27, 113.98 3.68 M39.84 88.96 C60.91 63.48, 82.42 38.1, 113.98 3.68 M48.51 91.19 C68.38 69.36, 90.93 42.38, 121.98 6.66 M48.51 91.19 C76.87 59.78, 104.14 27.2, 121.98 6.66 M57.17 93.42 C79.4 68.85, 98.75 44.65, 130.65 8.89 M57.17 93.42 C77.94 69.8, 99.62 44, 130.65 8.89 M65.83 95.65 C88.68 68.78, 111.25 40.2, 138.65 11.88 M65.83 95.65 C94.23 65.79, 120.03 34.33, 138.65 11.88 M76.46 95.62 C91.77 76, 110.69 57.45, 146 15.62 M76.46 95.62 C99.33 68.25, 124.05 41.76, 146 15.62 M87.09 95.58 C113.08 65.92, 136.87 37.17, 152.04 20.86 M87.09 95.58 C107.45 71.39, 128.39 46.68, 152.04 20.86 M97.72 95.55 C113.04 80.37, 124.42 63.39, 158.73 25.36 M97.72 95.55 C112.47 77.46, 127.35 60.86, 158.73 25.36 M109.66 94 C128.04 75.8, 145.17 56.45, 164.11 31.36 M109.66 94 C129.65 71.72, 149.92 47.76, 164.11 31.36 M122.92 90.95 C135.93 76.21, 146.48 60.77, 166.87 40.38 M122.92 90.95 C133.9 77.38, 146.32 61.93, 166.87 40.38 M136.17 87.9 C142.45 80.51, 150.26 70.89, 169.63 49.41 M136.17 87.9 C146.64 76.44, 157.79 64.96, 169.63 49.41" stroke="#a5d8ff" stroke-width="1" fill="none"/><path d="M68.55 0.15 C80.02 -1.85, 95.22 -0.85, 107.2 1.17 C119.18 3.19, 131.14 7.8, 140.43 12.25 C149.73 16.7, 158.1 21.7, 162.97 27.85 C167.83 34, 169.86 42.06, 169.63 49.14 C169.4 56.22, 167.2 63.99, 161.57 70.32 C155.94 76.66, 145.71 82.97, 135.85 87.17 C125.99 91.36, 114.32 94.1, 102.42 95.49 C90.52 96.88, 76.47 97.12, 64.45 95.51 C52.43 93.91, 39.81 90.57, 30.29 85.86 C20.77 81.15, 12.38 73.59, 7.31 67.25 C2.24 60.9, -0.53 54.67, -0.13 47.8 C0.28 40.93, 4.2 32.37, 9.75 26.03 C15.29 19.69, 22.89 13.98, 33.14 9.74 C43.39 5.5, 64.42 2.13, 71.27 0.59 C78.11 -0.96, 73.99 -0.21, 74.23 0.48 M125.96 7.27 C136.53 9.85, 145.88 13.7, 153.07 19.14 C160.26 24.58, 166.83 32.89, 169.1 39.9 C171.36 46.92, 170.1 54.74, 166.65 61.23 C163.2 67.71, 156.58 73.66, 148.39 78.82 C140.21 83.99, 129 89.45, 117.52 92.22 C106.05 95, 91.86 95.58, 79.55 95.48 C67.24 95.38, 54.46 94.75, 43.65 91.65 C32.84 88.55, 21.91 82.62, 14.72 76.88 C7.52 71.13, 2.28 64.19, 0.47 57.17 C-1.34 50.15, 0.26 41.74, 3.86 34.78 C7.45 27.82, 14.02 20.65, 22.03 15.41 C30.04 10.17, 40.5 5.97, 51.92 3.36 C63.33 0.75, 78.07 -0.86, 90.52 -0.26 C102.96 0.34, 120.93 5.54, 126.58 6.95 C132.22 8.35, 125.36 7.74, 124.39 8.17" stroke="#1e1e1e" stroke-width="2" fill="none"/></g><g stroke-linecap="round"><g transform="translate(96.44265061342071 194.30607987011146) rotate(0 2.4350076821945947 95.57390907090254)"><path d="M0.78 0.91 C1.39 32.77, 3.64 159.93, 4.4 191.83 M-0.26 0.34 C0.07 31.8, 2.36 158.36, 3.21 190.06" stroke="#1e1e1e" stroke-width="2" fill="none"/></g><g transform="translate(96.44265061342071 194.30607987011146) rotate(0 2.4350076821945947 95.57390907090254)"><path d="M-5.85 166.76 C-0.9 174.44, 2.03 184.53, 3.21 190.06 M-5.85 166.76 C-2.61 175.5, 1.33 184.93, 3.21 190.06" stroke="#1e1e1e" stroke-width="2" fill="none"/></g><g transform="translate(96.44265061342071 194.30607987011146) rotate(0 2.4350076821945947 95.57390907090254)"><path d="M11.25 166.39 C9.95 174.32, 6.63 184.54, 3.21 190.06 M11.25 166.39 C7.74 175.25, 4.92 184.83, 3.21 190.06" stroke="#1e1e1e" stroke-width="2" fill="none"/></g></g><mask/><g stroke-linecap="round"><g transform="translate(169.49271827327544 169.9560437496613) rotate(0 35.307570690325804 26.785043802644736)"><path d="M0.79 -0.82 C12.79 8, 59.75 44.52, 71.2 53.59 M-0.25 1.37 C11.71 10.33, 58.55 46.21, 70.57 55.13" stroke="#1e1e1e" stroke-width="2" fill="none"/></g><g transform="translate(169.49271827327544 169.9560437496613) rotate(0 35.307570690325804 26.785043802644736)"><path d="M46.67 47.79 C50.97 50.34, 57.98 49.25, 70.57 55.13 M46.67 47.79 C54.6 49.93, 61.63 51.62, 70.57 55.13" stroke="#1e1e1e" stroke-width="2" fill="none"/></g><g transform="translate(169.49271827327544 169.9560437496613) rotate(0 35.307570690325804 26.785043802644736)"><path d="M56.98 34.15 C58.93 39.98, 63.52 42.1, 70.57 55.13 M56.98 34.15 C61.84 40.45, 65.76 46.24, 70.57 55.13" stroke="#1e1e1e" stroke-width="2" fill="none"/></g></g><mask/><g stroke-linecap="round"><g transform="translate(324.11550258515314 217.43865285096004) rotate(0 29.22005148483936 -54.17883952583814)"><path d="M0.26 0.94 C10 -17.34, 49.52 -90.91, 59.11 -108.98 M-1.06 0.39 C8.52 -17.8, 48.88 -89.48, 58.52 -107.77" stroke="#1e1e1e" stroke-width="2" fill="none"/></g><g transform="translate(324.11550258515314 217.43865285096004) rotate(0 29.22005148483936 -54.17883952583814)"><path d="M54.75 -83.06 C57.52 -90.73, 56.25 -101.62, 58.52 -107.77 M54.75 -83.06 C56.77 -92.79, 57.25 -102.21, 58.52 -107.77" stroke="#1e1e1e" stroke-width="2" fill="none"/></g><g transform="translate(324.11550258515314 217.43865285096004) rotate(0 29.22005148483936 -54.17883952583814)"><path d="M39.74 -91.26 C47.89 -96.05, 51.96 -104.02, 58.52 -107.77 M39.74 -91.26 C47.43 -97.99, 53.54 -104.34, 58.52 -107.77" stroke="#1e1e1e" stroke-width="2" fill="none"/></g></g><mask/><g stroke-linecap="round"><g transform="translate(476.30319781184477 81.07842615554173) rotate(0 49.308803810701136 32.87254265738335)"><path d="M0.42 0.38 C16.88 11.54, 83.05 55.98, 99.22 66.69 M-0.82 -0.47 C15.49 10.39, 81.84 54.09, 98.59 65.06" stroke="#1e1e1e" stroke-width="2" fill="none"/></g><g transform="translate(476.30319781184477 81.07842615554173) rotate(0 49.308803810701136 32.87254265738335)"><path d="M74.26 59.3 C83.12 62.18, 92.31 61.16, 98.59 65.06 M74.26 59.3 C79.73 60.13, 84.56 61.21, 98.59 65.06" stroke="#1e1e1e" stroke-width="2" fill="none"/></g><g transform="translate(476.30319781184477 81.07842615554173) rotate(0 49.308803810701136 32.87254265738335)"><path d="M83.66 45.01 C89.3 52.76, 95.3 56.59, 98.59 65.06 M83.66 45.01 C87.1 48.78, 89.98 52.84, 98.59 65.06" stroke="#1e1e1e" stroke-width="2" fill="none"/></g></g><mask/><g stroke-linecap="round"><g transform="translate(544.4834129132933 311.1862858094688) rotate(0 17.65370394217149 -29.828803405387987)"><path d="M1.08 -0.24 C6.93 -10.32, 30.55 -50.61, 36.13 -60.57 M0.19 -1.42 C5.86 -11.36, 29.47 -49.94, 35.62 -59.52" stroke="#1e1e1e" stroke-width="2" fill="none"/></g><g transform="translate(544.4834129132933 311.1862858094688) rotate(0 17.65370394217149 -29.828803405387987)"><path d="M30.44 -35.06 C32.06 -43.17, 32.94 -55.2, 35.62 -59.52 M30.44 -35.06 C32.2 -41.65, 32.27 -48.08, 35.62 -59.52" stroke="#1e1e1e" stroke-width="2" fill="none"/></g><g transform="translate(544.4834129132933 311.1862858094688) rotate(0 17.65370394217149 -29.828803405387987)"><path d="M15.93 -44.11 C23.14 -48.86, 29.62 -57.4, 35.62 -59.52 M15.93 -44.11 C21.62 -48.25, 25.63 -52.23, 35.62 -59.52" stroke="#1e1e1e" stroke-width="2" fill="none"/></g></g><mask/><g stroke-linecap="round" transform="translate(299.6868311749962 526.3582635463422) rotate(0 85.2251467723234 48.091320320351656)"><path d="M7.8 27.98 C7.8 27.98, 7.8 27.98, 7.8 27.98 M7.8 27.98 C7.8 27.98, 7.8 27.98, 7.8 27.98 M-0.59 49.84 C11.88 37.99, 20.74 26.76, 33.52 10.59 M-0.59 49.84 C9.91 37.53, 20.3 25.85, 33.52 10.59 M3.48 57.35 C15.66 42.53, 29.22 29.39, 46.78 7.54 M3.48 57.35 C11.81 46.3, 22.04 36.9, 46.78 7.54 M6.89 65.61 C17.5 50.66, 27.72 41.84, 60.69 3.73 M6.89 65.61 C18.86 50.51, 33.86 33.81, 60.69 3.73 M12.27 71.62 C25.25 56.42, 39.16 38.76, 72.63 2.18 M12.27 71.62 C25.43 57.45, 37.95 41.86, 72.63 2.18 M18.97 76.11 C40.04 50.67, 63.7 26.83, 83.26 2.15 M18.97 76.11 C37.12 54.37, 56.63 33.13, 83.26 2.15 M25.66 80.61 C51.52 49.98, 79.98 19.2, 94.55 1.36 M25.66 80.61 C42.42 61.82, 57.65 43.15, 94.55 1.36 M31.7 85.85 C55.39 57.18, 80.92 33, 105.18 1.33 M31.7 85.85 C60.12 55.62, 86.58 24.81, 105.18 1.33 M40.36 88.08 C59.21 65.41, 77.87 45.39, 113.84 3.56 M40.36 88.08 C68.53 55.93, 95.09 24.75, 113.84 3.56 M49.02 90.31 C78.19 59.08, 107.82 27.22, 122.5 5.79 M49.02 90.31 C66.83 67.3, 86.57 46.33, 122.5 5.79 M57.03 93.3 C80.27 64.39, 102.56 37.83, 130.51 8.77 M57.03 93.3 C79.17 67.17, 102.2 40.71, 130.51 8.77 M65.69 95.53 C95.32 61.03, 124.67 27.23, 139.17 11 M65.69 95.53 C91.46 68.29, 114.66 39.33, 139.17 11 M76.97 94.74 C102.87 61.37, 131.24 33.57, 145.86 15.49 M76.97 94.74 C103.89 63.22, 130.27 32.31, 145.86 15.49 M87.6 94.7 C105.28 75.07, 118.66 59.31, 152.55 19.99 M87.6 94.7 C113.15 65.86, 137.97 37.11, 152.55 19.99 M98.23 94.67 C108.86 80.78, 122.75 63.95, 159.25 24.48 M98.23 94.67 C116.37 74.96, 133.88 54.06, 159.25 24.48 M109.52 93.88 C123.89 73.66, 139.44 55.71, 164.63 30.48 M109.52 93.88 C121.71 78.79, 135.22 64.03, 164.63 30.48 M123.43 90.07 C133.9 77.76, 145.94 63.91, 167.39 39.51 M123.43 90.07 C132.62 80.64, 142.36 70.08, 167.39 39.51 M136.69 87.02 C146.98 75.08, 154.51 63.31, 170.8 47.77 M136.69 87.02 C147 75.09, 158.77 61.49, 170.8 47.77" stroke="#e9ecef" stroke-width="1" fill="none"/><path d="M67.57 2.14 C78.71 -0.23, 92.76 -0.8, 104.64 0.58 C116.51 1.96, 129.08 6.03, 138.82 10.43 C148.56 14.82, 157.73 20.57, 163.07 26.94 C168.4 33.3, 170.96 41.52, 170.84 48.62 C170.71 55.73, 167.78 63.35, 162.32 69.57 C156.85 75.78, 147.78 81.78, 138.05 85.93 C128.32 90.08, 116.01 92.98, 103.93 94.47 C91.84 95.96, 77.5 96.31, 65.54 94.87 C53.59 93.42, 41.67 90.18, 32.19 85.8 C22.7 81.41, 14.14 74.79, 8.64 68.57 C3.13 62.35, -0.72 55.27, -0.84 48.49 C-0.96 41.7, 2.46 34.13, 7.92 27.85 C13.37 21.58, 19.81 15.6, 31.9 10.84 C44 6.08, 70.11 0.92, 80.48 -0.7 C90.85 -2.33, 93.98 0.13, 94.12 1.09 M89.49 -0.38 C101.01 -1.01, 114.56 2.51, 125.21 5.66 C135.86 8.81, 146.24 13.13, 153.41 18.51 C160.58 23.88, 165.78 30.73, 168.24 37.88 C170.69 45.03, 171.18 54.67, 168.15 61.41 C165.11 68.15, 158.44 73.01, 150.02 78.33 C141.6 83.65, 129.21 90.34, 117.62 93.32 C106.03 96.3, 92.39 96.53, 80.47 96.22 C68.55 95.9, 56.99 94.78, 46.12 91.44 C35.25 88.1, 22.8 81.9, 15.24 76.17 C7.68 70.44, 2.93 63.63, 0.74 57.04 C-1.44 50.44, -0.98 43.18, 2.15 36.58 C5.29 29.97, 11.55 22.95, 19.57 17.42 C27.58 11.89, 38.7 6.18, 50.25 3.42 C61.8 0.66, 82.48 1.39, 88.86 0.88 C95.23 0.36, 88.57 -0.34, 88.52 0.34" stroke="#1e1e1e" stroke-width="2" fill="none"/></g><g stroke-linecap="round"><g transform="translate(107.40022588479201 486.5065540170091) rotate(0 98.61760762140224 33.481294577931976)"><path d="M-0.86 1.05 C31.95 12.28, 163.16 55.23, 196.32 66.23 M0.89 0.55 C34.13 12.03, 165.73 56.08, 198.55 67.38" stroke="#1e1e1e" stroke-width="2" fill="none"/></g><g transform="translate(107.40022588479201 486.5065540170091) rotate(0 98.61760762140224 33.481294577931976)"><path d="M173.56 67.93 C181.59 66.45, 184.9 69.28, 198.55 67.38 M173.56 67.93 C181.9 67.63, 187.75 67.1, 198.55 67.38" stroke="#1e1e1e" stroke-width="2" fill="none"/></g><g transform="translate(107.40022588479201 486.5065540170091) rotate(0 98.61760762140224 33.481294577931976)"><path d="M179.05 51.74 C185.54 54.28, 187.47 61.18, 198.55 67.38 M179.05 51.74 C185.56 56.37, 189.75 60.76, 198.55 67.38" stroke="#1e1e1e" stroke-width="2" fill="none"/></g></g><mask/><g stroke-linecap="round"><g transform="translate(510.39330536256904 408.5864302912694) rotate(0 -37.133806101223854 62.70136641351917)"><path d="M0.91 -0.99 C-11.42 20, -61.07 104.66, -73.62 125.64 M-0.07 1.11 C-12.53 21.74, -61.7 102.83, -74.23 123.64" stroke="#1e1e1e" stroke-width="2" fill="none"/></g><g transform="translate(510.39330536256904 408.5864302912694) rotate(0 -37.133806101223854 62.70136641351917)"><path d="M-69.39 99.11 C-72.7 108.33, -72.26 115.15, -74.23 123.64 M-69.39 99.11 C-69.89 106.04, -72.81 112.69, -74.23 123.64" stroke="#1e1e1e" stroke-width="2" fill="none"/></g><g transform="translate(510.39330536256904 408.5864302912694) rotate(0 -37.133806101223854 62.70136641351917)"><path d="M-54.76 107.96 C-62.87 114.37, -67.27 118.26, -74.23 123.64 M-54.76 107.96 C-59.03 112.64, -65.72 117, -74.23 123.64" stroke="#1e1e1e" stroke-width="2" fill="none"/></g></g><mask/></svg>