<svg version="1.1" xmlns="http://www.w3.org/2000/svg" viewBox="0 0 1819.9088764190674 489.7259635925293" width="1819.9088764190674" height="489.7259635925293" filter="invert(93%) hue-rotate(180deg)" class="excalidraw-svg">
  <!-- svg-source:excalidraw -->
  
  <defs>
    <style class="style-fonts">
      @font-face {
        font-family: "Virgil";
        src: url("https://excalidraw.com/Virgil.woff2");
      }
      @font-face {
        font-family: "Cascadia";
        src: url("https://excalidraw.com/Cascadia.woff2");
      }
      @font-face {
        font-family: "Assistant";
        src: url("https://excalidraw.com/Assistant-Regular.woff2");
      }
    </style>
    
  </defs>
  <g stroke-linecap="round" transform="translate(1142.6002216339111 11.423229217529297) rotate(0 333.6543273925782 234.1513671875)"><path d="M0 0 C245.71 1.17, 490.3 2.17, 667.31 0 M667.31 0 C665.5 129.13, 665.54 258.15, 667.31 468.3 M667.31 468.3 C449.36 466.83, 229.59 465.55, 0 468.3 M0 468.3 C-1.03 333.26, -0.46 200.07, 0 0" stroke="#1e1e1e" stroke-width="1.5" fill="none" stroke-dasharray="8 9"/></g><g stroke-linecap="round" transform="translate(684.867208480835 289.81089782714844) rotate(0 119.12965393066406 50.664337158203125)"><path d="M0 0 C0 0, 0 0, 0 0 M0 0 C0 0, 0 0, 0 0 M-0.26 6.4 C1.29 4.93, 2.1 3.14, 4.99 0.36 M-0.26 6.4 C1.88 4.16, 4.01 1.73, 4.99 0.36 M0.13 12.04 C2.43 6.73, 6.68 3.87, 10.63 -0.03 M0.13 12.04 C3.81 7.75, 8.55 2.94, 10.63 -0.03 M-0.13 18.44 C3.51 14.26, 5.6 11.93, 15.62 0.33 M-0.13 18.44 C2.45 14.61, 6.27 10.96, 15.62 0.33 M0.27 24.08 C5.69 18.44, 13.55 8.99, 21.26 -0.07 M0.27 24.08 C4.21 20.04, 8.96 14.56, 21.26 -0.07 M0 30.48 C4.39 24.03, 12.08 16.6, 26.25 0.29 M0 30.48 C9.29 19.42, 20.03 8.17, 26.25 0.29 M-0.26 36.88 C10.93 24.37, 17.59 13.38, 31.89 -0.1 M-0.26 36.88 C8.85 27.72, 15.39 17.64, 31.89 -0.1 M0.14 42.52 C8.91 33.53, 18.6 23.39, 36.88 0.26 M0.14 42.52 C12.96 29.15, 23.99 15.08, 36.88 0.26 M-0.12 48.92 C7.15 38.55, 16.47 27.93, 42.52 -0.14 M-0.12 48.92 C13.22 34.08, 25.06 20.28, 42.52 -0.14 M0.27 54.56 C14.2 35.74, 34.18 17.5, 47.51 0.22 M0.27 54.56 C11.81 41.79, 21.97 27.66, 47.51 0.22 M0.01 60.96 C12.52 45.98, 26.46 30.84, 53.15 -0.17 M0.01 60.96 C15.39 43.58, 30.22 26.56, 53.15 -0.17 M-0.25 67.36 C18.67 45.53, 39.55 25.22, 58.14 0.19 M-0.25 67.36 C16.96 48.86, 34.42 28.44, 58.14 0.19 M0.14 73 C18.38 52.48, 34.27 33.72, 63.78 -0.21 M0.14 73 C20.68 49.65, 40.26 24.99, 63.78 -0.21 M-0.12 79.4 C24.72 51.07, 50.45 20.68, 68.77 0.15 M-0.12 79.4 C15.62 60.92, 30.24 44.11, 68.77 0.15 M0.28 85.04 C18.49 65.68, 35.34 43.73, 74.41 -0.24 M0.28 85.04 C28.6 53.74, 55.6 20.08, 74.41 -0.24 M0.01 91.44 C21.22 67.99, 41.95 44.33, 79.4 0.12 M0.01 91.44 C27.94 57.62, 57.23 25.18, 79.4 0.12 M-0.25 97.84 C29.05 64.24, 58.99 28.29, 85.04 -0.28 M-0.25 97.84 C21.66 72.02, 44.07 44.62, 85.04 -0.28 M1.46 101.97 C25.58 73.31, 52.97 44.49, 90.03 0.08 M1.46 101.97 C33.37 63.92, 67.58 25, 90.03 0.08 M7.1 101.58 C37.21 68.27, 64.19 32.16, 95.67 -0.31 M7.1 101.58 C31.41 72.24, 56.5 43.74, 95.67 -0.31 M12.09 101.94 C28.96 79.67, 49.08 59.61, 100.66 0.05 M12.09 101.94 C41.35 69.28, 72.62 34.94, 100.66 0.05 M17.73 101.54 C49 66.54, 80.92 30.26, 106.3 -0.34 M17.73 101.54 C52.49 60.25, 87.37 19.18, 106.3 -0.34 M22.72 101.9 C49.37 71.12, 73.74 40.5, 111.29 0.02 M22.72 101.9 C45.26 74.85, 68.9 47.88, 111.29 0.02 M28.36 101.51 C51.98 72.74, 75.24 48.01, 116.27 0.38 M28.36 101.51 C50.72 74.95, 72.09 50.68, 116.27 0.38 M33.35 101.87 C51.36 79.75, 73.54 58.07, 121.92 -0.02 M33.35 101.87 C66.76 65.74, 98.14 27.88, 121.92 -0.02 M38.99 101.47 C58.77 78.38, 80.28 55.04, 126.91 0.34 M38.99 101.47 C68.97 66.34, 100.94 31.74, 126.91 0.34 M43.98 101.83 C67.36 77.64, 88.17 50.33, 132.55 -0.05 M43.98 101.83 C64.75 78.78, 82.69 57.79, 132.55 -0.05 M49.62 101.44 C68.24 80.12, 90.03 57.23, 137.54 0.31 M49.62 101.44 C74.67 72.52, 101.28 43.8, 137.54 0.31 M54.61 101.8 C73.12 83.17, 89.23 62.52, 143.18 -0.09 M54.61 101.8 C85.26 65.98, 117.11 29.55, 143.18 -0.09 M60.25 101.4 C94.15 62.47, 126.46 26.13, 148.17 0.27 M60.25 101.4 C87.59 70.03, 115.1 39.52, 148.17 0.27 M65.24 101.76 C88.62 74.14, 116.11 42.85, 153.81 -0.12 M65.24 101.76 C92.28 71.87, 119.87 39.42, 153.81 -0.12 M70.88 101.37 C92.05 77.7, 113.45 51.87, 158.8 0.24 M70.88 101.37 C101.63 65.58, 132.75 29.89, 158.8 0.24 M75.87 101.73 C99.3 74.68, 126.24 42.78, 164.44 -0.16 M75.87 101.73 C105.12 66.93, 136.1 29.95, 164.44 -0.16 M81.51 101.33 C106.41 72.03, 130.99 47.7, 169.43 0.2 M81.51 101.33 C102.46 79.8, 120.03 57.78, 169.43 0.2 M86.5 101.69 C120.65 63.02, 150.6 27.38, 175.07 -0.19 M86.5 101.69 C118.24 66.38, 149.18 29.04, 175.07 -0.19 M92.14 101.3 C125.55 63.48, 163.06 21.45, 180.06 0.17 M92.14 101.3 C123.75 62.82, 156.83 24.64, 180.06 0.17 M97.13 101.66 C121.58 74.8, 146.25 44.09, 185.7 -0.23 M97.13 101.66 C128.21 64.99, 158.8 29.63, 185.7 -0.23 M102.12 102.02 C122.72 81.46, 140.39 58.73, 190.69 0.13 M102.12 102.02 C134.26 63.58, 167.76 27.28, 190.69 0.13 M107.76 101.62 C134.97 68.31, 167.39 34.11, 196.33 -0.26 M107.76 101.62 C138.23 67.03, 167.82 32.05, 196.33 -0.26 M112.75 101.99 C129.57 80.29, 150.91 59.75, 201.32 0.1 M112.75 101.99 C130.28 80.99, 148.64 60.73, 201.32 0.1 M118.39 101.59 C139.27 79.15, 156.72 57.31, 206.96 -0.3 M118.39 101.59 C145.93 71.15, 172.03 38.85, 206.96 -0.3 M123.38 101.95 C154.22 64.74, 187.63 29.33, 211.95 0.06 M123.38 101.95 C157.81 62.81, 190.63 24.82, 211.95 0.06 M129.02 101.56 C148.88 79.34, 166.12 57.08, 217.59 -0.33 M129.02 101.56 C163.18 62.92, 197.67 25.01, 217.59 -0.33 M134.01 101.92 C160.33 73.69, 184.36 45.52, 222.58 0.03 M134.01 101.92 C156.35 77.33, 177.2 50.12, 222.58 0.03 M139.65 101.52 C173.24 61.95, 208.84 22.45, 228.22 -0.36 M139.65 101.52 C166.93 69.51, 193.15 37.69, 228.22 -0.36 M144.64 101.88 C169.35 72.42, 198.74 41.67, 233.21 0 M144.64 101.88 C167.36 75.52, 189.75 49.68, 233.21 0 M150.28 101.49 C182.98 66.59, 215.71 26.27, 238.19 0.36 M150.28 101.49 C181.59 63.81, 213.73 26.83, 238.19 0.36 M155.27 101.85 C175.05 80.74, 195.33 58.19, 238.59 6 M155.27 101.85 C178.89 74.35, 202.98 47.11, 238.59 6 M160.91 101.45 C185.67 69.51, 216.74 40.54, 238.33 12.4 M160.91 101.45 C177.41 82.12, 194.45 62.46, 238.33 12.4 M165.9 101.81 C188.99 74.23, 212.53 48.88, 238.72 18.04 M165.9 101.81 C189.46 73.81, 212.33 47.62, 238.72 18.04 M171.54 101.42 C194.88 73.47, 217.24 48.35, 238.46 24.44 M171.54 101.42 C191.78 77.33, 212.5 55.56, 238.46 24.44 M176.53 101.78 C196.15 78.13, 217.92 51.81, 238.2 30.84 M176.53 101.78 C188.77 86.95, 203.68 71.13, 238.2 30.84 M182.17 101.38 C199.78 83.13, 215.52 62.03, 238.59 36.48 M182.17 101.38 C196.53 87.05, 208.49 71.19, 238.59 36.48 M187.16 101.74 C203.41 81.84, 218.86 63.76, 238.33 42.88 M187.16 101.74 C201.48 85.58, 214.83 68.85, 238.33 42.88 M192.8 101.35 C208.93 81.74, 224.85 63.44, 238.73 48.52 M192.8 101.35 C209.95 81.06, 226.4 61.78, 238.73 48.52 M197.79 101.71 C209.89 85.26, 226.16 68.54, 238.46 54.92 M197.79 101.71 C211.17 87.28, 221.96 73.62, 238.46 54.92 M203.43 101.31 C211.53 92.81, 220 81.07, 238.2 61.31 M203.43 101.31 C214.64 88.16, 224.03 76.16, 238.2 61.31 M208.42 101.67 C216.96 93.87, 220.8 85.81, 238.6 66.96 M208.42 101.67 C218.98 89.99, 229.02 77.86, 238.6 66.96 M213.41 102.03 C221.04 94.94, 228.67 85.76, 238.34 73.36 M213.41 102.03 C221.04 93.75, 228.92 84.01, 238.34 73.36 M219.05 101.64 C221.98 97.79, 228 92.86, 238.07 79.75 M219.05 101.64 C226.06 93.71, 233.61 85.24, 238.07 79.75 M224.04 102 C230.27 95.6, 232.24 89.93, 238.47 85.4 M224.04 102 C229.15 96.47, 234.17 91.34, 238.47 85.4 M229.68 101.61 C230.86 99.13, 233.61 96.61, 238.21 91.79 M229.68 101.61 C232.52 98.37, 235.37 95.42, 238.21 91.79 M234.67 101.97 C236.09 101.21, 236.67 100.19, 238.6 97.44 M234.67 101.97 C236.06 100.11, 237.96 98.75, 238.6 97.44" stroke="#a5d8ff" stroke-width="0.5" fill="none"/><path d="M0 0 C78.89 -0.67, 156.24 -0.26, 238.26 0 M0 0 C92.4 -0.75, 183.43 0.77, 238.26 0 M238.26 0 C235.74 33.18, 237.25 66.33, 238.26 101.33 M238.26 0 C239.27 21.27, 239.34 41.2, 238.26 101.33 M238.26 101.33 C170.39 101.36, 103.9 100.97, 0 101.33 M238.26 101.33 C186.19 100.35, 133.43 101.17, 0 101.33 M0 101.33 C1.6 76.89, 0.29 54.76, 0 0 M0 101.33 C0.61 74.42, 0.69 45.16, 0 0" stroke="#1e1e1e" stroke-width="1" fill="none"/></g><g stroke-linecap="round" transform="translate(373.1746578216553 287.92657470703125) rotate(0 133.73553466796875 29)"><path d="M0 0 C0 0, 0 0, 0 0 M0 0 C0 0, 0 0, 0 0 M-0.26 6.4 C1.97 4.4, 3.34 1.97, 4.99 0.36 M-0.26 6.4 C1.44 4.49, 2.81 2.05, 4.99 0.36 M0.13 12.04 C4.9 8.71, 7.68 1.54, 10.63 -0.03 M0.13 12.04 C3.74 7.47, 7.86 3.74, 10.63 -0.03 M-0.13 18.44 C1.75 12.76, 5.34 11.89, 15.62 0.33 M-0.13 18.44 C5.47 13.18, 9.49 8.22, 15.62 0.33 M0.27 24.08 C7.15 17.08, 11.35 11.62, 21.26 -0.07 M0.27 24.08 C8.47 15.75, 14.7 6.86, 21.26 -0.07 M0 30.48 C11.74 19.5, 20.58 4.85, 26.25 0.29 M0 30.48 C6.11 24.38, 11.6 16.86, 26.25 0.29 M-0.26 36.88 C11.64 25.73, 23.42 13.69, 31.89 -0.1 M-0.26 36.88 C6.6 27.48, 15.43 19.29, 31.89 -0.1 M0.14 42.52 C14.31 27, 27.42 11.97, 36.88 0.26 M0.14 42.52 C8.25 33.26, 16.54 22.79, 36.88 0.26 M-0.12 48.92 C13.74 34.11, 27.43 19.62, 42.52 -0.14 M-0.12 48.92 C12.48 33.41, 26.51 16.52, 42.52 -0.14 M0.27 54.56 C10.83 39.01, 24.94 23.55, 47.51 0.22 M0.27 54.56 C10.99 41.55, 23.44 29.44, 47.51 0.22 M1.98 58.69 C16.66 41.43, 33.1 26.35, 53.15 -0.17 M1.98 58.69 C22.6 35.99, 41.41 12.39, 53.15 -0.17 M7.62 58.3 C19.18 46.1, 29.74 35.81, 58.14 0.19 M7.62 58.3 C23.15 38.99, 40.68 20.59, 58.14 0.19 M12.61 58.66 C31.42 38.93, 44.59 20.18, 63.78 -0.21 M12.61 58.66 C25.85 42.63, 39.57 27.57, 63.78 -0.21 M18.25 58.27 C32.29 41.71, 47.91 24.16, 68.77 0.15 M18.25 58.27 C39.01 36.95, 56.58 13.9, 68.77 0.15 M23.24 58.63 C37.59 43.45, 53.58 27.08, 74.41 -0.24 M23.24 58.63 C39.6 40.73, 55.47 20.82, 74.41 -0.24 M28.23 58.99 C46.13 34.84, 65.24 13.55, 79.4 0.12 M28.23 58.99 C39.79 46.85, 49.11 35.28, 79.4 0.12 M33.87 58.59 C54.55 38.02, 74.21 14.05, 85.04 -0.28 M33.87 58.59 C47.47 41.23, 61.93 25.59, 85.04 -0.28 M38.86 58.95 C53.86 39.58, 68.96 21.34, 90.03 0.08 M38.86 58.95 C52.36 45.26, 63.69 29.07, 90.03 0.08 M44.5 58.56 C54.51 44.41, 67.6 29.49, 95.67 -0.31 M44.5 58.56 C59.37 41.62, 74.07 25, 95.67 -0.31 M49.49 58.92 C64.3 41.7, 78.9 25.49, 100.66 0.05 M49.49 58.92 C62.49 45.82, 75.16 31.65, 100.66 0.05 M55.13 58.52 C66.89 45.84, 77.91 31.4, 106.3 -0.34 M55.13 58.52 C66.09 45.14, 77.24 32.31, 106.3 -0.34 M60.12 58.88 C75.76 39.43, 95.92 17.78, 111.29 0.02 M60.12 58.88 C78.65 36.8, 97.94 15.54, 111.29 0.02 M65.76 58.49 C81.12 38.72, 97.52 22.06, 116.27 0.38 M65.76 58.49 C82.49 39.78, 98.69 20.95, 116.27 0.38 M70.75 58.85 C80.87 47.48, 92.72 35.46, 121.92 -0.02 M70.75 58.85 C88.31 39.38, 105.46 20.25, 121.92 -0.02 M76.39 58.45 C92.15 43.91, 103.65 26.48, 126.91 0.34 M76.39 58.45 C90.55 43.02, 104.3 26.97, 126.91 0.34 M81.38 58.81 C96.54 40.42, 111 25.67, 132.55 -0.05 M81.38 58.81 C93.7 43.85, 107.02 29.63, 132.55 -0.05 M87.02 58.42 C106.73 34.39, 128.06 14.71, 137.54 0.31 M87.02 58.42 C97.68 45.95, 108.9 34.25, 137.54 0.31 M92.01 58.78 C108.35 40.94, 122.19 24.21, 143.18 -0.09 M92.01 58.78 C109.58 39.11, 127.17 18.9, 143.18 -0.09 M97.65 58.38 C115.33 37.26, 133 16.89, 148.17 0.27 M97.65 58.38 C116.07 36.44, 135.86 13.92, 148.17 0.27 M102.64 58.74 C121.62 36.25, 139.9 17.23, 153.81 -0.12 M102.64 58.74 C117.84 41.05, 133.51 24.37, 153.81 -0.12 M108.28 58.35 C122.07 41.82, 135.43 29.39, 158.8 0.24 M108.28 58.35 C121.94 42.28, 135.79 24.52, 158.8 0.24 M113.27 58.71 C130.29 39.23, 143.93 21.49, 164.44 -0.16 M113.27 58.71 C127.34 41.58, 141.82 25.57, 164.44 -0.16 M118.91 58.32 C138.4 37.18, 154.68 16.02, 169.43 0.2 M118.91 58.32 C130.55 43.72, 144.4 27.22, 169.43 0.2 M123.9 58.68 C140.65 43, 154.62 23.66, 175.07 -0.19 M123.9 58.68 C140.22 40.05, 157.54 20.06, 175.07 -0.19 M129.54 58.28 C144.04 42.79, 156.91 25.08, 180.06 0.17 M129.54 58.28 C149.41 35.64, 169.06 12.04, 180.06 0.17 M134.53 58.64 C151.5 40.53, 164.61 23.39, 185.7 -0.23 M134.53 58.64 C150.87 39.23, 168.86 19.31, 185.7 -0.23 M140.17 58.25 C149.78 46.67, 162.56 33.84, 190.69 0.13 M140.17 58.25 C159.3 37.16, 175.81 17.17, 190.69 0.13 M145.16 58.61 C157.01 48.71, 165.68 33.43, 196.33 -0.26 M145.16 58.61 C158.35 44.45, 171.28 28.14, 196.33 -0.26 M150.14 58.97 C161.68 48.46, 170.26 33.95, 201.32 0.1 M150.14 58.97 C169.22 35.99, 189.07 14.82, 201.32 0.1 M155.79 58.57 C173.44 37.85, 190.14 17.83, 206.96 -0.3 M155.79 58.57 C176.48 36.95, 195.99 14.28, 206.96 -0.3 M160.77 58.93 C180.68 36.74, 196.23 13.95, 211.95 0.06 M160.77 58.93 C174.94 42.77, 188.54 26.96, 211.95 0.06 M166.42 58.54 C185.69 37.5, 204.02 16.36, 217.59 -0.33 M166.42 58.54 C187.02 35.94, 206.09 11.51, 217.59 -0.33 M171.4 58.9 C185.35 42.66, 196.92 27.1, 222.58 0.03 M171.4 58.9 C181.36 47.06, 191.8 34.86, 222.58 0.03 M177.05 58.5 C194.4 35.69, 215.54 13.11, 228.22 -0.36 M177.05 58.5 C192.51 41.4, 208.36 23.39, 228.22 -0.36 M182.03 58.86 C194.77 44.1, 202.96 33.75, 233.21 0 M182.03 58.86 C199.98 37.99, 218.33 18.22, 233.21 0 M187.68 58.47 C206.85 37.63, 223.13 18.81, 238.19 0.36 M187.68 58.47 C204.94 38.54, 223.73 17.97, 238.19 0.36 M192.66 58.83 C210.52 39.25, 226.11 21.64, 243.84 -0.04 M192.66 58.83 C204.34 44.99, 214.52 33.04, 243.84 -0.04 M198.31 58.43 C215.93 36.75, 233.46 17.02, 248.82 0.32 M198.31 58.43 C214.04 40.56, 229.58 22.51, 248.82 0.32 M203.29 58.79 C217.95 42.22, 230.33 25.24, 254.47 -0.07 M203.29 58.79 C217.85 41.69, 233.35 23.31, 254.47 -0.07 M208.94 58.4 C225.89 37.11, 243.69 19.86, 259.45 0.29 M208.94 58.4 C225.84 39.8, 243.88 19.6, 259.45 0.29 M213.92 58.76 C229.83 40.33, 246.58 24.19, 265.1 -0.11 M213.92 58.76 C227.56 43.76, 240.08 26.83, 265.1 -0.11 M219.57 58.37 C235.56 41.61, 250.89 20.48, 267.46 3.27 M219.57 58.37 C235.54 38.31, 253.5 18.48, 267.46 3.27 M224.55 58.73 C235.36 46.35, 248.48 32.94, 267.85 8.91 M224.55 58.73 C240.77 41.86, 255.66 22.91, 267.85 8.91 M230.2 58.33 C237.49 48.21, 246.24 39.49, 267.59 15.31 M230.2 58.33 C239.47 45.77, 251.02 34.8, 267.59 15.31 M235.18 58.69 C247.68 44.35, 260.38 31.32, 267.33 21.71 M235.18 58.69 C247.65 44.46, 258.95 30.4, 267.33 21.71 M240.83 58.3 C249.85 47.32, 261.96 35.37, 267.73 27.35 M240.83 58.3 C249.81 47.11, 260.51 35.72, 267.73 27.35 M245.81 58.66 C250.23 52.25, 256.6 48.68, 267.46 33.75 M245.81 58.66 C252.72 49.81, 259.55 41.77, 267.46 33.75 M251.46 58.26 C254.73 51.53, 262.51 49.48, 267.86 39.39 M251.46 58.26 C256.25 52.54, 259.87 48.4, 267.86 39.39 M256.44 58.62 C262.11 52.73, 264.22 50.06, 267.6 45.79 M256.44 58.62 C260.15 53.94, 264.8 48.96, 267.6 45.79 M261.43 58.98 C262.03 57.28, 264.74 56.11, 267.34 52.19 M261.43 58.98 C264.09 56.82, 265.48 54.23, 267.34 52.19" stroke="#a5d8ff" stroke-width="0.5" fill="none"/><path d="M0 0 C86.27 -0.8, 174.33 1.58, 267.47 0 M0 0 C104.02 0.03, 207.75 0.13, 267.47 0 M267.47 0 C269.61 14.17, 266.44 27.8, 267.47 58 M267.47 0 C266.34 12.66, 266.4 26.89, 267.47 58 M267.47 58 C186.68 57.29, 104.24 56.34, 0 58 M267.47 58 C206.58 57.92, 145.28 57.78, 0 58 M0 58 C1.97 40.05, -1.01 21.32, 0 0 M0 58 C0.82 43.15, 1.02 27.6, 0 0" stroke="#1e1e1e" stroke-width="1" fill="none"/></g><g stroke-linecap="round" transform="translate(40.23044395446777 289.2862243652344) rotate(0 135.1048583984375 28.298995971679688)"><path d="M0 0 C0 0, 0 0, 0 0 M0 0 C0 0, 0 0, 0 0 M-0.26 6.4 C0.62 4.14, 1.93 2.57, 4.99 0.36 M-0.26 6.4 C1.69 4.54, 3.72 1.67, 4.99 0.36 M0.13 12.04 C3.88 7.26, 7.85 2.7, 10.63 -0.03 M0.13 12.04 C2.61 9.42, 5.53 6.36, 10.63 -0.03 M-0.13 18.44 C2.78 12.29, 7.93 7.3, 15.62 0.33 M-0.13 18.44 C4.34 11.58, 11.8 6.39, 15.62 0.33 M0.27 24.08 C4.15 18.56, 8.98 12.88, 21.26 -0.07 M0.27 24.08 C6.8 16.04, 13.62 9.05, 21.26 -0.07 M0 30.48 C8.16 19.35, 15.31 11.35, 26.25 0.29 M0 30.48 C9.31 19.38, 18.05 9.63, 26.25 0.29 M-0.26 36.88 C9.77 23.98, 20.17 16.16, 31.89 -0.1 M-0.26 36.88 C10.01 24.53, 21.33 10.87, 31.89 -0.1 M0.14 42.52 C6.07 34.71, 17.37 24.37, 36.88 0.26 M0.14 42.52 C11.43 30.53, 21.78 17.13, 36.88 0.26 M-0.12 48.92 C11.93 38.42, 19.52 25.49, 42.52 -0.14 M-0.12 48.92 C13.26 32.95, 26.25 17.84, 42.52 -0.14 M0.27 54.56 C13.84 39.94, 25.33 23.97, 47.51 0.22 M0.27 54.56 C17.01 34.64, 33.57 15.6, 47.51 0.22 M3.29 57.19 C21.98 34.8, 38.9 14.62, 53.15 -0.17 M3.29 57.19 C19.47 37.04, 37.72 17.05, 53.15 -0.17 M8.93 56.79 C25.85 38.9, 37.79 22.68, 58.14 0.19 M8.93 56.79 C21.22 43.23, 33.45 28.16, 58.14 0.19 M13.92 57.15 C30.22 37.83, 43.12 20.62, 63.78 -0.21 M13.92 57.15 C26.11 44.42, 35.88 31.36, 63.78 -0.21 M18.91 57.51 C36.32 38.34, 52.75 18.3, 68.77 0.15 M18.91 57.51 C33.09 41.76, 47.5 24.98, 68.77 0.15 M24.55 57.12 C39.82 40.56, 55.57 21.06, 74.41 -0.24 M24.55 57.12 C35.03 44.84, 47.04 32.02, 74.41 -0.24 M29.54 57.48 C47.87 36.69, 67.18 14.9, 79.4 0.12 M29.54 57.48 C46.84 37.9, 61.85 18.92, 79.4 0.12 M35.18 57.08 C52.34 38.22, 69.09 20.24, 85.04 -0.28 M35.18 57.08 C47.92 41.63, 62.06 25.85, 85.04 -0.28 M40.17 57.44 C56.78 38.77, 73.34 20.74, 90.03 0.08 M40.17 57.44 C53.21 44.29, 64.79 30.38, 90.03 0.08 M45.81 57.05 C64.17 34.29, 85.89 14.79, 95.67 -0.31 M45.81 57.05 C55.25 45, 65.53 32.56, 95.67 -0.31 M50.8 57.41 C67.63 38.33, 85.15 19.14, 100.66 0.05 M50.8 57.41 C63.88 41.73, 77.23 27.38, 100.66 0.05 M56.44 57.01 C72.32 39.37, 91.41 19.61, 106.3 -0.34 M56.44 57.01 C72.24 38.65, 87.58 20.91, 106.3 -0.34 M61.43 57.37 C80.01 38.04, 95.19 15.66, 111.29 0.02 M61.43 57.37 C71.08 44.59, 82.64 32.74, 111.29 0.02 M67.07 56.98 C78.78 46.48, 86.51 32.26, 116.27 0.38 M67.07 56.98 C86.68 34.36, 105.68 12.98, 116.27 0.38 M72.06 57.34 C88.76 35.03, 108.86 12.21, 121.92 -0.02 M72.06 57.34 C84.64 41.95, 97.87 27.28, 121.92 -0.02 M77.7 56.94 C94.04 38.01, 113.42 16.01, 126.91 0.34 M77.7 56.94 C91.72 42.38, 104.37 26.87, 126.91 0.34 M82.69 57.3 C98.06 41.36, 112.49 22.99, 132.55 -0.05 M82.69 57.3 C102.34 35, 121.74 11.69, 132.55 -0.05 M88.33 56.91 C104.9 36.05, 123.26 15.44, 137.54 0.31 M88.33 56.91 C102.48 41.58, 116 24.03, 137.54 0.31 M93.32 57.27 C109.3 41.07, 125.21 20.56, 143.18 -0.09 M93.32 57.27 C109.93 37.05, 128.91 16.48, 143.18 -0.09 M98.96 56.88 C115.1 36.14, 134.46 17.99, 148.17 0.27 M98.96 56.88 C112.37 43.03, 124.72 28.43, 148.17 0.27 M103.95 57.24 C114.06 43.61, 125.98 31.72, 153.81 -0.12 M103.95 57.24 C117.31 41.12, 130.08 27.18, 153.81 -0.12 M109.59 56.84 C129.79 36.49, 147.49 13.32, 158.8 0.24 M109.59 56.84 C124.46 40.95, 137.06 24.43, 158.8 0.24 M114.58 57.2 C133.45 36.91, 152.75 12.72, 164.44 -0.16 M114.58 57.2 C126.88 43.87, 138.35 29.21, 164.44 -0.16 M120.22 56.81 C139.46 34.32, 154.91 17.01, 169.43 0.2 M120.22 56.81 C136.48 39.32, 153.16 20.05, 169.43 0.2 M125.21 57.17 C140.49 39.28, 157.17 21.89, 175.07 -0.19 M125.21 57.17 C142.15 36.59, 159.82 16.92, 175.07 -0.19 M130.19 57.53 C145.42 38.66, 162.81 20.5, 180.06 0.17 M130.19 57.53 C140.48 45.54, 152.7 32.48, 180.06 0.17 M135.84 57.13 C152.84 40.05, 166.98 20.09, 185.7 -0.23 M135.84 57.13 C148.84 42.18, 160.82 27.42, 185.7 -0.23 M140.83 57.49 C157.47 39.76, 169.67 24.8, 190.69 0.13 M140.83 57.49 C154.82 40.98, 169.75 23.23, 190.69 0.13 M146.47 57.1 C158.91 41.96, 174.32 26.39, 196.33 -0.26 M146.47 57.1 C156.3 44.77, 167.06 32.89, 196.33 -0.26 M151.46 57.46 C164.4 45.01, 174.31 30.87, 201.32 0.1 M151.46 57.46 C169.11 35.35, 187.29 14.34, 201.32 0.1 M157.1 57.06 C169.26 43.19, 183.04 29.18, 206.96 -0.3 M157.1 57.06 C168.65 45.6, 179.02 32.36, 206.96 -0.3 M162.09 57.42 C178.85 40.52, 193.67 18.8, 211.95 0.06 M162.09 57.42 C177.32 41.26, 193.37 23.5, 211.95 0.06 M167.73 57.03 C180.54 44.4, 192.71 29.22, 217.59 -0.33 M167.73 57.03 C180.53 40.54, 193.57 25.78, 217.59 -0.33 M172.72 57.39 C187.49 42.05, 199.44 24.89, 222.58 0.03 M172.72 57.39 C185.9 42.25, 199.34 26.41, 222.58 0.03 M178.36 56.99 C191.87 43.14, 200.94 29.5, 228.22 -0.36 M178.36 56.99 C195.94 38.13, 212.88 17.95, 228.22 -0.36 M183.35 57.35 C204.34 35.64, 225.13 12.92, 233.21 0 M183.35 57.35 C197.21 39.76, 213.43 22.59, 233.21 0 M188.99 56.96 C200.35 46.61, 208.78 32.69, 238.19 0.36 M188.99 56.96 C208.55 35.84, 226.42 13.21, 238.19 0.36 M193.98 57.32 C212.66 37.43, 228.17 14.78, 243.84 -0.04 M193.98 57.32 C209.6 40.09, 222.76 22.49, 243.84 -0.04 M199.62 56.92 C214.71 42.02, 226.88 26.93, 248.82 0.32 M199.62 56.92 C215.62 37.88, 231.97 17.94, 248.82 0.32 M204.61 57.28 C214.21 44.29, 225.06 31.8, 254.47 -0.07 M204.61 57.28 C216.73 41.94, 230.64 27.45, 254.47 -0.07 M210.25 56.89 C229.82 33.92, 247.25 15.46, 259.45 0.29 M210.25 56.89 C225.48 40.56, 239.42 22.4, 259.45 0.29 M215.24 57.25 C232.69 36.88, 254.78 13.71, 265.1 -0.11 M215.24 57.25 C229.62 40.47, 242.68 25.76, 265.1 -0.11 M220.88 56.86 C239.72 36.51, 256.97 16.23, 270.08 0.25 M220.88 56.86 C237.78 37.6, 256.13 16.2, 270.08 0.25 M225.87 57.22 C236.99 43.4, 246.9 32.33, 270.48 5.9 M225.87 57.22 C238.01 43.38, 252.58 28, 270.48 5.9 M231.51 56.82 C243.88 43.66, 252.79 29.04, 270.22 12.29 M231.51 56.82 C245.21 41.94, 260.74 24.16, 270.22 12.29 M236.5 57.18 C248.36 44.72, 259.03 27.75, 269.95 18.69 M236.5 57.18 C246.6 44.67, 256.87 34.49, 269.95 18.69 M241.48 57.54 C251.54 43.31, 263.52 32.23, 270.35 24.33 M241.48 57.54 C252.32 45.09, 263.24 33.74, 270.35 24.33 M247.13 57.15 C253.97 50.43, 258.26 43.64, 270.09 30.73 M247.13 57.15 C252.26 50.79, 259.52 42.96, 270.09 30.73 M252.11 57.51 C257.82 51.12, 260.5 46.47, 270.48 36.38 M252.11 57.51 C255.62 52.66, 258.9 48.6, 270.48 36.38 M257.76 57.11 C261.32 51.5, 264.82 48.15, 270.22 42.77 M257.76 57.11 C260.96 52.54, 265.96 48.24, 270.22 42.77 M262.74 57.47 C265.41 53.46, 269.61 50.99, 269.96 49.17 M262.74 57.47 C264.25 55.41, 266.72 53.7, 269.96 49.17 M268.39 57.08 C268.6 56.24, 269.25 55.79, 270.35 54.81 M268.39 57.08 C269.07 56.43, 269.64 55.62, 270.35 54.81" stroke="#a5d8ff" stroke-width="0.5" fill="none"/><path d="M0 0 C80.59 1.55, 159.94 0.75, 270.21 0 M0 0 C60.62 -0.49, 121.85 0.31, 270.21 0 M270.21 0 C272.34 14.95, 271.1 27.13, 270.21 56.6 M270.21 0 C270.2 21.87, 269.99 42.51, 270.21 56.6 M270.21 56.6 C180.64 55.94, 93.32 56.74, 0 56.6 M270.21 56.6 C165.92 57.65, 61.96 57.37, 0 56.6 M0 56.6 C-0.36 39.83, 1.92 18.94, 0 0 M0 56.6 C-1.36 43.34, -0.72 30.81, 0 0" stroke="#1e1e1e" stroke-width="1" fill="none"/></g><g stroke-linecap="round"><g transform="translate(780.2334957151139 288.81089782714844) rotate(0 -29.425739761995544 -55.20684814453125)"><path d="M0 0 C-21.08 -42.31, -42.99 -82.88, -58.85 -110.41 M0 0 C-24.98 -43.96, -47.46 -85.74, -58.85 -110.41" stroke="#1e1e1e" stroke-width="1" fill="none"/></g><g transform="translate(780.2334957151139 288.81089782714844) rotate(0 -29.425739761995544 -55.20684814453125)"><path d="M-58.31 -109.23 L-48.62 -102.74 L-57.64 -93.43 L-58.78 -108.62" stroke="none" stroke-width="0" fill="#1e1e1e" fill-rule="evenodd"/><path d="M-58.85 -110.41 C-54.75 -108.04, -50.84 -104.86, -47.16 -101.02 M-58.85 -110.41 C-54.89 -107.39, -49.74 -102.38, -47.16 -101.02 M-47.16 -101.02 C-49.71 -99.75, -53.55 -96.81, -58.53 -95.42 M-47.16 -101.02 C-51.39 -99.69, -54.8 -97.06, -58.53 -95.42 M-58.53 -95.42 C-59.65 -99.19, -58.99 -104.31, -58.85 -110.41 M-58.53 -95.42 C-59.27 -98.4, -59.26 -103.12, -58.85 -110.41 M-58.85 -110.41 C-58.85 -110.41, -58.85 -110.41, -58.85 -110.41 M-58.85 -110.41 C-58.85 -110.41, -58.85 -110.41, -58.85 -110.41" stroke="#1e1e1e" stroke-width="1" fill="none"/></g></g><mask/><g stroke-linecap="round" transform="translate(568.525426864624 47.76953125) rotate(0 115.4781494140625 62.98809051513672)"><path d="M0 0 C0 0, 0 0, 0 0 M0 0 C0 0, 0 0, 0 0 M-0.26 6.4 C1.22 5.6, 2.62 3.64, 4.99 0.36 M-0.26 6.4 C0.7 5.06, 2.71 2.9, 4.99 0.36 M0.13 12.04 C4.13 9.04, 7.36 3.31, 10.63 -0.03 M0.13 12.04 C3.7 9.13, 6.04 4.55, 10.63 -0.03 M-0.13 18.44 C3.45 15.94, 7.47 10.63, 15.62 0.33 M-0.13 18.44 C5.17 11.58, 11.06 4.78, 15.62 0.33 M0.27 24.08 C5.23 16.74, 10.66 10.42, 21.26 -0.07 M0.27 24.08 C6.97 16.01, 12.96 9.47, 21.26 -0.07 M0 30.48 C10.2 19.86, 18.54 7.01, 26.25 0.29 M0 30.48 C10.04 19.12, 20.86 6.65, 26.25 0.29 M-0.26 36.88 C5.26 26.14, 16.42 19.91, 31.89 -0.1 M-0.26 36.88 C10.73 25.36, 20.08 12.54, 31.89 -0.1 M0.14 42.52 C12.6 27.57, 27.87 10.91, 36.88 0.26 M0.14 42.52 C9.03 31.46, 19.07 21.79, 36.88 0.26 M-0.12 48.92 C11.43 37.84, 18.91 25.45, 42.52 -0.14 M-0.12 48.92 C14.82 31.29, 30.35 16.13, 42.52 -0.14 M0.27 54.56 C12.98 38.68, 29.18 19.33, 47.51 0.22 M0.27 54.56 C8.64 43.09, 20.18 33.44, 47.51 0.22 M0.01 60.96 C12.76 45.76, 26.93 29.44, 53.15 -0.17 M0.01 60.96 C12.03 46.2, 24.38 31.63, 53.15 -0.17 M-0.25 67.36 C20.94 40.28, 42.91 15.21, 58.14 0.19 M-0.25 67.36 C14.7 49.41, 30.69 31.39, 58.14 0.19 M0.14 73 C23.4 44.96, 50.63 14.23, 63.78 -0.21 M0.14 73 C22.54 47.8, 43.34 24.88, 63.78 -0.21 M-0.12 79.4 C17.94 59.85, 34.5 37.74, 68.77 0.15 M-0.12 79.4 C18.35 59.58, 34.44 39.44, 68.77 0.15 M0.28 85.04 C20.6 61.7, 39.26 38.48, 74.41 -0.24 M0.28 85.04 C18.59 63.72, 35.66 44.47, 74.41 -0.24 M0.01 91.44 C23.3 62.47, 47.84 36.08, 79.4 0.12 M0.01 91.44 C24.53 63.33, 49.47 36.34, 79.4 0.12 M-0.25 97.84 C30.44 61.27, 58.22 27.97, 85.04 -0.28 M-0.25 97.84 C20.4 74.53, 41.37 50.2, 85.04 -0.28 M0.15 103.48 C30.46 67.88, 63.82 33.08, 90.03 0.08 M0.15 103.48 C36.67 63.38, 71.85 22.33, 90.03 0.08 M-0.11 109.88 C35.39 68.64, 73.63 27.29, 95.67 -0.31 M-0.11 109.88 C27.92 78.52, 55.37 45.42, 95.67 -0.31 M0.28 115.52 C31.62 80.71, 64.8 44.41, 100.66 0.05 M0.28 115.52 C22.66 89.39, 43.75 64.72, 100.66 0.05 M0.02 121.92 C36.88 76.54, 75.91 32.53, 106.3 -0.34 M0.02 121.92 C22.6 96.19, 43.91 70.14, 106.3 -0.34 M1.73 126.05 C37.86 85.76, 75.69 39.65, 111.29 0.02 M1.73 126.05 C29.67 92.93, 58.86 59.5, 111.29 0.02 M6.71 126.41 C30.35 98.17, 52.53 71.46, 116.27 0.38 M6.71 126.41 C40.22 86.91, 73.93 50.02, 116.27 0.38 M12.36 126.02 C52.72 79.56, 92.17 33.3, 121.92 -0.02 M12.36 126.02 C53.65 74.81, 97.56 26.88, 121.92 -0.02 M17.34 126.38 C53.28 85.39, 88.29 46.6, 126.91 0.34 M17.34 126.38 C53.06 83.14, 90.04 42.49, 126.91 0.34 M22.99 125.98 C50.41 92.88, 80.79 57.62, 132.55 -0.05 M22.99 125.98 C47.9 97.19, 73.81 65.92, 132.55 -0.05 M27.97 126.34 C64.07 84.41, 99.39 40.33, 137.54 0.31 M27.97 126.34 C65.46 82.95, 102.44 40.72, 137.54 0.31 M33.62 125.95 C66.97 86.44, 106.5 44.41, 143.18 -0.09 M33.62 125.95 C75.36 76.02, 118.67 28.29, 143.18 -0.09 M38.6 126.31 C79.54 74.37, 125.67 27.01, 148.17 0.27 M38.6 126.31 C64.2 96.07, 90.06 67.49, 148.17 0.27 M44.25 125.91 C88.23 78.62, 131.81 26.33, 153.81 -0.12 M44.25 125.91 C71.05 95.38, 95.73 67.54, 153.81 -0.12 M49.23 126.27 C85.55 86.25, 118.74 43.42, 158.8 0.24 M49.23 126.27 C72.73 98.43, 95.29 72.49, 158.8 0.24 M54.88 125.88 C88.16 91.48, 118.98 52.48, 164.44 -0.16 M54.88 125.88 C87.32 86.74, 121.35 49.95, 164.44 -0.16 M59.86 126.24 C103.62 76.92, 148.25 25.96, 169.43 0.2 M59.86 126.24 C95.69 85.86, 130.64 46.52, 169.43 0.2 M65.51 125.84 C88.66 94.11, 117.64 65.3, 175.07 -0.19 M65.51 125.84 C100.46 84.52, 136.03 44.1, 175.07 -0.19 M70.49 126.2 C113.35 74.45, 154.77 26.02, 180.06 0.17 M70.49 126.2 C101.62 89.85, 131.61 56.33, 180.06 0.17 M75.48 126.56 C118.98 73.9, 164.61 26.02, 185.7 -0.23 M75.48 126.56 C118.11 78.03, 161.68 29.3, 185.7 -0.23 M81.12 126.17 C122.17 79.85, 163.15 30.87, 190.69 0.13 M81.12 126.17 C113.55 87.8, 146.86 48.15, 190.69 0.13 M86.11 126.53 C124.31 79.84, 165.72 34.75, 196.33 -0.26 M86.11 126.53 C125.61 83.11, 163.08 40.07, 196.33 -0.26 M91.75 126.14 C119.89 97.49, 145.27 64.49, 201.32 0.1 M91.75 126.14 C120.39 93.51, 150 60.94, 201.32 0.1 M96.74 126.5 C123.61 96.05, 150.72 66.99, 206.96 -0.3 M96.74 126.5 C122.04 97.86, 147.36 67.59, 206.96 -0.3 M102.38 126.1 C128.12 95.91, 153.3 70.01, 211.95 0.06 M102.38 126.1 C134.08 89.33, 164.45 52.96, 211.95 0.06 M107.37 126.46 C151.57 78.23, 194.53 29.38, 217.59 -0.33 M107.37 126.46 C137.44 93.57, 166.38 61.76, 217.59 -0.33 M113.01 126.07 C155.88 75.38, 199.44 27.61, 222.58 0.03 M113.01 126.07 C135.49 99.82, 157.6 73.02, 222.58 0.03 M118 126.43 C148.69 91.58, 177.34 56.27, 228.22 -0.36 M118 126.43 C140.15 100.38, 164.06 76.54, 228.22 -0.36 M123.64 126.03 C160.14 85.92, 192.07 47.73, 231.24 2.26 M123.64 126.03 C156.36 88.17, 187.82 48.81, 231.24 2.26 M128.63 126.39 C167.66 80.99, 210.47 34.95, 231.63 7.9 M128.63 126.39 C147.66 102.31, 170.04 77.34, 231.63 7.9 M134.27 126 C156.06 98.77, 181.58 71.07, 231.37 14.3 M134.27 126 C168.45 87.06, 200.77 49.19, 231.37 14.3 M139.26 126.36 C176.3 84.98, 212.3 43.39, 231.77 19.94 M139.26 126.36 C175.33 86.91, 210.72 44.77, 231.77 19.94 M144.9 125.96 C166.66 97.99, 192.89 74.23, 231.5 26.34 M144.9 125.96 C174.94 91.46, 203.81 57.7, 231.5 26.34 M149.89 126.32 C172.95 100.74, 197.36 73.99, 231.24 32.74 M149.89 126.32 C170.47 103.28, 189.8 80.35, 231.24 32.74 M155.53 125.93 C185.32 91.26, 213.65 55.68, 231.64 38.38 M155.53 125.93 C173.83 106.15, 189.3 87.5, 231.64 38.38 M160.52 126.29 C184.18 100.01, 205.47 75.01, 231.38 44.78 M160.52 126.29 C176.72 108.41, 192.92 88.24, 231.38 44.78 M166.16 125.89 C187.62 100.73, 206.77 78.45, 231.77 50.42 M166.16 125.89 C189.32 99.49, 211.82 74, 231.77 50.42 M171.15 126.25 C185.89 107.17, 200.69 89.69, 231.51 56.82 M171.15 126.25 C194.47 98.88, 219.3 70.29, 231.51 56.82 M176.79 125.86 C197.17 101.66, 215.96 82.27, 231.25 63.22 M176.79 125.86 C197.38 102.82, 216.6 81.17, 231.25 63.22 M181.78 126.22 C195.26 109.01, 206.41 97.46, 231.64 68.86 M181.78 126.22 C198.32 107.21, 216.74 87.35, 231.64 68.86 M186.77 126.58 C205.05 107.27, 217.31 89.53, 231.38 75.26 M186.77 126.58 C203.27 107.07, 222.01 87.17, 231.38 75.26 M192.41 126.19 C203.41 113.4, 214.2 98.89, 231.78 80.9 M192.41 126.19 C202.54 113.96, 212.71 102.41, 231.78 80.9 M197.4 126.55 C204.83 116.77, 215.75 108.95, 231.51 87.3 M197.4 126.55 C205.23 117.95, 212.78 108.2, 231.51 87.3 M203.04 126.15 C208.69 117.87, 218.4 108.52, 231.25 93.7 M203.04 126.15 C210.1 116.13, 217.84 107.77, 231.25 93.7 M208.03 126.51 C216.1 115.32, 224.3 106.77, 231.65 99.34 M208.03 126.51 C214.77 118.11, 223.52 108.95, 231.65 99.34 M213.67 126.12 C217.05 120.4, 225.96 115.21, 231.39 105.74 M213.67 126.12 C219.94 119.83, 225.68 113.34, 231.39 105.74 M218.66 126.48 C222.74 122.97, 225.7 118.96, 231.78 111.38 M218.66 126.48 C221.47 124.17, 224.1 119.67, 231.78 111.38 M224.3 126.08 C225.86 124.45, 227.13 122.64, 231.52 117.78 M224.3 126.08 C226.88 123.76, 229.22 120.34, 231.52 117.78 M229.29 126.44 C229.8 125.47, 230.6 124.57, 231.26 124.18 M229.29 126.44 C229.9 125.8, 230.43 124.9, 231.26 124.18" stroke="#a5d8ff" stroke-width="0.5" fill="none"/><path d="M0 0 C77.74 0.34, 156.65 1.03, 230.96 0 M0 0 C64.09 -0.94, 128.56 0.64, 230.96 0 M230.96 0 C233.03 45.9, 233.1 92.08, 230.96 125.98 M230.96 0 C230.46 48.73, 230.08 95.07, 230.96 125.98 M230.96 125.98 C180.55 126.37, 132.62 125.95, 0 125.98 M230.96 125.98 C170.16 124.79, 110.12 125.23, 0 125.98 M0 125.98 C-0.59 95.36, 2.79 61.02, 0 0 M0 125.98 C0.13 88.32, 1.01 51.91, 0 0" stroke="#1e1e1e" stroke-width="1" fill="none"/></g><g stroke-linecap="round"><g transform="translate(503.45408677552825 284.7740173339844) rotate(0 82.61480712890625 -52.946502685546875)"><path d="M0.98 -0.71 C28.86 -18.2, 138.7 -88.05, 166.19 -105.49 M0.03 1.53 C27.93 -16.29, 138.16 -89.24, 165.74 -107.4" stroke="#1e1e1e" stroke-width="1" fill="none"/></g><g transform="translate(503.45408677552825 284.7740173339844) rotate(0 82.61480712890625 -52.946502685546875)"><path d="M164.75 -105.63 L157.5 -92.9 L152.85 -106.03 L165.56 -105.62" stroke="none" stroke-width="0" fill="#1e1e1e" fill-rule="evenodd"/><path d="M165.74 -107.4 C163.14 -103.46, 162.89 -101.13, 157.89 -94.62 M165.74 -107.4 C163.31 -102.34, 160.45 -99.26, 157.89 -94.62 M157.89 -94.62 C155.41 -99.02, 153.49 -102.36, 150.9 -105.2 M157.89 -94.62 C155.17 -98.91, 151.92 -102.5, 150.9 -105.2 M150.9 -105.2 C157.02 -104.67, 162.63 -106.29, 165.74 -107.4 M150.9 -105.2 C153.54 -104.94, 157.85 -106.1, 165.74 -107.4 M165.74 -107.4 C165.74 -107.4, 165.74 -107.4, 165.74 -107.4 M165.74 -107.4 C165.74 -107.4, 165.74 -107.4, 165.74 -107.4" stroke="#1e1e1e" stroke-width="1" fill="none"/></g></g><mask/><g stroke-linecap="round"><g transform="translate(181.59584554110666 287.51263427734375) rotate(0 196.7236938476563 -56.14155578613281)"><path d="M-0.62 0.54 C65.08 -18.29, 328.76 -94.2, 394.25 -112.84 M1.25 -0.22 C66.87 -18.91, 328.17 -92.77, 393.72 -111.59" stroke="#1e1e1e" stroke-width="1" fill="none"/></g><g transform="translate(181.59584554110666 287.51263427734375) rotate(0 196.7236938476563 -56.14155578613281)"><path d="M395.36 -112.92 L382.55 -103.75 L379.62 -113.33 L395.15 -111.23" stroke="none" stroke-width="0" fill="#1e1e1e" fill-rule="evenodd"/><path d="M393.72 -111.59 C390.99 -107.68, 386.21 -107.16, 382.38 -101.77 M393.72 -111.59 C389.21 -108.33, 384.56 -103.67, 382.38 -101.77 M382.38 -101.77 C382.48 -105.79, 380.66 -107.18, 378.91 -113.97 M382.38 -101.77 C381.22 -105.41, 380.5 -109.52, 378.91 -113.97 M378.91 -113.97 C384.02 -114.19, 389.15 -112.87, 393.72 -111.59 M378.91 -113.97 C384.16 -113.27, 389.45 -111.91, 393.72 -111.59 M393.72 -111.59 C393.72 -111.59, 393.72 -111.59, 393.72 -111.59 M393.72 -111.59 C393.72 -111.59, 393.72 -111.59, 393.72 -111.59" stroke="#1e1e1e" stroke-width="1" fill="none"/></g></g><mask/><g stroke-linecap="round"><g transform="translate(682.3350276925136 373.322509765625) rotate(0 -86.72271728515625 -12.780197143554688)"><path d="M-1.08 -0.77 C-17.44 -1.62, -70.36 -0.43, -98.96 -4.5 C-127.55 -8.57, -160.29 -21.59, -172.64 -25.17 M0.55 1.44 C-15.84 0.67, -70.7 1.38, -99.62 -3.41 C-128.54 -8.2, -160.82 -23.69, -172.99 -27.31" stroke="#1e1e1e" stroke-width="1" fill="none"/></g></g><mask/><g stroke-linecap="round"><g transform="translate(684.6954461940472 382.4512939453125) rotate(0 -262.9067687988281 -11.867385864257812)"><path d="M-1 1.15 C-52.18 2.87, -219.22 16.58, -306.64 10.79 C-394.06 5, -489.04 -26.04, -525.52 -33.58 M0.68 0.7 C-50.16 2.58, -216.57 18.25, -304.37 12.25 C-392.17 6.24, -489.34 -27.76, -526.13 -35.34" stroke="#1e1e1e" stroke-width="1" fill="none"/></g></g><mask/><g stroke-linecap="round" transform="translate(1178.2879276275635 139.31071853637695) rotate(0 148.79795837402344 98.13362121582031)"><path d="M0 0 C0 0, 0 0, 0 0 M0 0 C0 0, 0 0, 0 0 M-0.26 6.4 C0.92 5.69, 1.79 3.67, 4.99 0.36 M-0.26 6.4 C1.17 4.61, 3.03 2.52, 4.99 0.36 M0.13 12.04 C1.71 8.11, 4.48 7.07, 10.63 -0.03 M0.13 12.04 C3.94 8.04, 6.72 4.77, 10.63 -0.03 M-0.13 18.44 C5.68 10.97, 12.29 3.99, 15.62 0.33 M-0.13 18.44 C3.63 14.06, 7.65 9.16, 15.62 0.33 M0.27 24.08 C8.36 18.42, 13.45 11.03, 21.26 -0.07 M0.27 24.08 C7.37 17.3, 12.12 10.7, 21.26 -0.07 M0 30.48 C8.3 21.79, 16.02 11.62, 26.25 0.29 M0 30.48 C9.71 20.94, 18.47 9.55, 26.25 0.29 M-0.26 36.88 C11.05 23.41, 25.89 7.17, 31.89 -0.1 M-0.26 36.88 C8.26 26.68, 16.81 17.15, 31.89 -0.1 M0.14 42.52 C13.97 26.45, 28.54 10.99, 36.88 0.26 M0.14 42.52 C8.06 33.13, 16.15 24.36, 36.88 0.26 M-0.12 48.92 C16.41 30.92, 31.8 13.73, 42.52 -0.14 M-0.12 48.92 C11.57 37.2, 20.66 23.72, 42.52 -0.14 M0.27 54.56 C14.3 37.51, 31.95 21.65, 47.51 0.22 M0.27 54.56 C13.01 40.95, 24.02 27.16, 47.51 0.22 M0.01 60.96 C12.01 48.43, 24.28 33.79, 53.15 -0.17 M0.01 60.96 C10.12 48.67, 22.69 34.17, 53.15 -0.17 M-0.25 67.36 C19.65 46.37, 39.05 23.97, 58.14 0.19 M-0.25 67.36 C19.95 44.51, 38.32 23.19, 58.14 0.19 M0.14 73 C25.16 45.72, 47.23 17.38, 63.78 -0.21 M0.14 73 C20.84 48.84, 41.13 24.97, 63.78 -0.21 M-0.12 79.4 C27.23 47.1, 51.5 20.13, 68.77 0.15 M-0.12 79.4 C21.63 54.12, 44.38 29.21, 68.77 0.15 M0.28 85.04 C15.76 69.02, 30.81 50.94, 74.41 -0.24 M0.28 85.04 C20.54 62.02, 42.29 37.57, 74.41 -0.24 M0.01 91.44 C16.98 69.74, 33.12 51.68, 79.4 0.12 M0.01 91.44 C19.87 69.74, 37.94 49.08, 79.4 0.12 M-0.25 97.84 C24.06 72.82, 47.65 43.01, 85.04 -0.28 M-0.25 97.84 C17.05 76.04, 36.85 55.62, 85.04 -0.28 M0.15 103.48 C33.23 67.09, 64.99 33.19, 90.03 0.08 M0.15 103.48 C27.29 74.26, 53.18 43.41, 90.03 0.08 M-0.11 109.88 C27.11 78.8, 54.36 47.58, 95.67 -0.31 M-0.11 109.88 C31.65 71.75, 64.42 34.45, 95.67 -0.31 M0.28 115.52 C26.27 83.65, 55.42 53.81, 100.66 0.05 M0.28 115.52 C27.6 84.44, 54.02 53.21, 100.66 0.05 M0.02 121.92 C43.86 72.11, 85.27 24.63, 106.3 -0.34 M0.02 121.92 C37.97 79.54, 75.45 37.44, 106.3 -0.34 M-0.24 128.32 C30.26 91.87, 63.93 57.48, 111.29 0.02 M-0.24 128.32 C34.93 89.78, 67.82 52.41, 111.29 0.02 M0.15 133.96 C27.65 99.79, 56.68 68.61, 116.27 0.38 M0.15 133.96 C46.79 81.98, 92.03 27.39, 116.27 0.38 M-0.11 140.36 C26.34 113.47, 50.8 81.67, 121.92 -0.02 M-0.11 140.36 C40.08 96.08, 79.58 51.57, 121.92 -0.02 M0.29 146 C45.14 97.31, 89.23 44.8, 126.91 0.34 M0.29 146 C42.05 98.02, 82.23 51.82, 126.91 0.34 M0.02 152.4 C38.3 111.83, 73.72 68.33, 132.55 -0.05 M0.02 152.4 C28.28 117.64, 57.15 86.09, 132.55 -0.05 M-0.24 158.8 C44.67 110.97, 86.05 60.67, 137.54 0.31 M-0.24 158.8 C30.33 125.32, 59.38 91.89, 137.54 0.31 M0.16 164.44 C48.37 110.91, 95.14 56.29, 143.18 -0.09 M0.16 164.44 C36.02 121.83, 73.08 80.37, 143.18 -0.09 M-0.1 170.84 C57.8 104.68, 117.64 38.85, 148.17 0.27 M-0.1 170.84 C37.94 126.98, 76.17 82.45, 148.17 0.27 M0.29 176.48 C52.09 116.16, 105.05 54.23, 153.81 -0.12 M0.29 176.48 C40.44 127.5, 83 79.44, 153.81 -0.12 M0.03 182.88 C57.54 117.99, 113.34 51.24, 158.8 0.24 M0.03 182.88 C48.73 128.77, 95.99 74.15, 158.8 0.24 M-0.23 189.27 C42.01 138.53, 88.42 85.56, 164.44 -0.16 M-0.23 189.27 C44.63 138.66, 89.25 87.71, 164.44 -0.16 M0.16 194.92 C39.78 148.6, 77.36 104.47, 169.43 0.2 M0.16 194.92 C41.62 144.46, 85.31 95.02, 169.43 0.2 M3.84 196.79 C49.61 143.11, 95.84 90.11, 175.07 -0.19 M3.84 196.79 C43.47 150.7, 84.06 105.43, 175.07 -0.19 M9.48 196.39 C65.51 129.86, 121.76 66.9, 180.06 0.17 M9.48 196.39 C63.38 134.46, 116.96 71.66, 180.06 0.17 M14.47 196.75 C58.04 145.92, 100.47 96.24, 185.7 -0.23 M14.47 196.75 C69.42 135.28, 122.26 74.67, 185.7 -0.23 M20.11 196.36 C57.41 150.69, 98.89 108.4, 190.69 0.13 M20.11 196.36 C78.4 128.19, 137.4 60.84, 190.69 0.13 M25.1 196.72 C81.39 131.27, 136.2 66.02, 196.33 -0.26 M25.1 196.72 C65.45 151.19, 103.82 105.44, 196.33 -0.26 M30.74 196.32 C65.29 155.73, 99.25 116.83, 201.32 0.1 M30.74 196.32 C78.97 141.24, 125.43 86.64, 201.32 0.1 M35.73 196.68 C102.07 123.51, 163.92 48.79, 206.96 -0.3 M35.73 196.68 C86.05 140.12, 133.97 85.69, 206.96 -0.3 M41.37 196.29 C104.82 122.1, 172.57 44.82, 211.95 0.06 M41.37 196.29 C97 134.09, 151.11 72.3, 211.95 0.06 M46.36 196.65 C87.75 146.21, 130.88 99.04, 217.59 -0.33 M46.36 196.65 C103.91 132.13, 162.05 65.69, 217.59 -0.33 M52 196.25 C89.17 158.73, 122.07 116.89, 222.58 0.03 M52 196.25 C111.77 127.08, 171.91 59.71, 222.58 0.03 M56.99 196.61 C122.48 120.43, 188.47 46.9, 228.22 -0.36 M56.99 196.61 C97.37 152.52, 137.42 106.83, 228.22 -0.36 M62.63 196.22 C122.6 124.86, 184.14 55.4, 233.21 0 M62.63 196.22 C115.01 135.62, 167.62 74.1, 233.21 0 M67.62 196.58 C135.07 118.42, 203.04 40.66, 238.19 0.36 M67.62 196.58 C130.74 121.64, 195.47 49.24, 238.19 0.36 M73.26 196.19 C110.79 152.94, 150.27 110.57, 243.84 -0.04 M73.26 196.19 C113.93 150.58, 154.56 104.47, 243.84 -0.04 M78.25 196.55 C124.68 141.45, 172.12 86.95, 248.82 0.32 M78.25 196.55 C137.72 126.39, 199.17 57.83, 248.82 0.32 M83.89 196.15 C125.94 144, 170.4 94.41, 254.47 -0.07 M83.89 196.15 C120.45 155.62, 155.62 114.49, 254.47 -0.07 M88.88 196.51 C155.65 122.12, 223.68 42.51, 259.45 0.29 M88.88 196.51 C142.27 134.08, 196.48 70.15, 259.45 0.29 M94.52 196.12 C159.13 121.25, 225.9 45.15, 265.1 -0.11 M94.52 196.12 C127.84 155.67, 163.57 116.7, 265.1 -0.11 M99.51 196.48 C147.8 137.5, 196.39 80.74, 270.08 0.25 M99.51 196.48 C133.62 156.06, 169.1 116.38, 270.08 0.25 M105.15 196.08 C144.97 151.65, 181.99 106.27, 275.73 -0.14 M105.15 196.08 C149.71 147.36, 193.42 97.16, 275.73 -0.14 M110.14 196.44 C161.39 137.48, 210.13 80.77, 280.71 0.22 M110.14 196.44 C160.82 137.04, 211.54 79.91, 280.71 0.22 M115.78 196.05 C163.05 142.77, 209.83 88.01, 286.36 -0.18 M115.78 196.05 C162.26 142.66, 208.07 91.25, 286.36 -0.18 M120.77 196.41 C176.88 132.34, 231.4 69.71, 291.34 0.18 M120.77 196.41 C169.71 142.65, 216.81 87.46, 291.34 0.18 M125.76 196.77 C177.34 140.44, 227.67 81.87, 296.99 -0.21 M125.76 196.77 C163.06 151.72, 201.84 107.85, 296.99 -0.21 M131.4 196.37 C171.81 151.39, 211.07 103.85, 298.04 4.68 M131.4 196.37 C196.96 123.16, 260.74 48.74, 298.04 4.68 M136.39 196.73 C186.34 136.34, 239.93 76.59, 297.78 11.08 M136.39 196.73 C198.74 125.68, 261.12 53.84, 297.78 11.08 M142.03 196.34 C191.71 139.66, 243.1 80.26, 298.17 16.72 M142.03 196.34 C175.77 154.18, 212.13 113.35, 298.17 16.72 M147.02 196.7 C193.76 144.93, 237.75 91.06, 297.91 23.12 M147.02 196.7 C187.2 148.83, 228.39 103.35, 297.91 23.12 M152.66 196.3 C208.68 131.86, 263.85 67.3, 297.65 29.51 M152.66 196.3 C180.38 163.45, 210.7 130.17, 297.65 29.51 M157.65 196.66 C188.43 160.7, 217.35 125.81, 298.04 35.16 M157.65 196.66 C196.15 154.02, 234.84 110.83, 298.04 35.16 M163.29 196.27 C198.72 154.24, 234.54 113.43, 297.78 41.55 M163.29 196.27 C196.29 155, 230.92 117.07, 297.78 41.55 M168.28 196.63 C215.17 142.41, 262.03 89.25, 298.18 47.2 M168.28 196.63 C202.58 157.44, 236.25 118.12, 298.18 47.2 M173.92 196.24 C218.33 145.67, 260.13 93.84, 297.91 53.6 M173.92 196.24 C214.55 149.48, 253.2 103.06, 297.91 53.6 M178.91 196.6 C211.2 158.14, 243.58 120.47, 297.65 59.99 M178.91 196.6 C224.93 143.58, 270.51 91.27, 297.65 59.99 M184.55 196.2 C211.75 165.74, 236.8 140.62, 298.05 65.64 M184.55 196.2 C219.71 156.72, 254.85 116.22, 298.05 65.64 M189.54 196.56 C212.56 171.33, 238.87 141.41, 297.79 72.03 M189.54 196.56 C216.4 165.42, 242.95 133.93, 297.79 72.03 M195.18 196.17 C218.11 171.39, 239.83 144.64, 298.18 77.68 M195.18 196.17 C224.2 163.27, 251.77 130.05, 298.18 77.68 M200.17 196.53 C227.42 162.55, 256.52 127.12, 297.92 84.07 M200.17 196.53 C234.23 157.03, 266.81 119.59, 297.92 84.07 M205.81 196.13 C229.29 170.49, 253.32 139.68, 297.66 90.47 M205.81 196.13 C232.69 166.3, 259.26 136.19, 297.66 90.47 M210.8 196.49 C238.86 168.08, 261.37 135.99, 298.05 96.12 M210.8 196.49 C230.02 175.57, 249.56 152.18, 298.05 96.12 M216.44 196.1 C238.74 169.82, 262.64 142.48, 297.79 102.51 M216.44 196.1 C244.18 164.3, 272.25 132.87, 297.79 102.51 M221.43 196.46 C244.47 169.67, 268.79 143.31, 298.18 108.16 M221.43 196.46 C245.45 168.96, 269.32 142.98, 298.18 108.16 M227.07 196.06 C252.79 168.25, 276.13 141.32, 297.92 114.55 M227.07 196.06 C243.95 177.96, 259.52 157.52, 297.92 114.55 M232.06 196.42 C248.86 179.08, 263.96 161.27, 297.66 120.95 M232.06 196.42 C251.31 172.54, 271.89 150.11, 297.66 120.95 M237.04 196.78 C255.12 173.81, 276.91 150.76, 298.06 126.6 M237.04 196.78 C256.76 174.52, 278.11 150.79, 298.06 126.6 M242.69 196.39 C262.53 172.29, 282.02 151.55, 297.79 132.99 M242.69 196.39 C264.12 171.17, 285.24 146.77, 297.79 132.99 M247.67 196.75 C260.39 180.95, 274.95 165.77, 298.19 138.64 M247.67 196.75 C266.11 175.81, 283.71 155.08, 298.19 138.64 M253.32 196.35 C269.5 176.2, 288.15 159.2, 297.93 145.03 M253.32 196.35 C270.36 176.31, 287.81 155.72, 297.93 145.03 M258.3 196.71 C271.53 180.57, 288.41 161.02, 297.67 151.43 M258.3 196.71 C267.76 185.78, 275.61 176.82, 297.67 151.43 M263.95 196.32 C271.81 188.61, 281.66 176.77, 298.06 157.07 M263.95 196.32 C270.98 187.43, 278.71 178.08, 298.06 157.07 M268.93 196.68 C276.09 186.16, 283.06 178.77, 297.8 163.47 M268.93 196.68 C273.99 189.77, 279.9 183.25, 297.8 163.47 M274.58 196.29 C279.24 188.61, 286.84 183.78, 298.19 169.12 M274.58 196.29 C282.12 188.57, 289.95 179.66, 298.19 169.12 M279.56 196.65 C284.17 190.31, 291.92 183.14, 297.93 175.51 M279.56 196.65 C286.76 189.78, 292.83 182.29, 297.93 175.51 M285.21 196.25 C286.81 190.61, 291.72 186.77, 297.67 181.91 M285.21 196.25 C288.3 192.19, 292.83 187.64, 297.67 181.91 M290.19 196.61 C291.99 194.7, 294.9 192.76, 298.07 187.55 M290.19 196.61 C291.92 193.7, 294.26 192.08, 298.07 187.55 M295.84 196.22 C296.09 195.58, 296.46 195.46, 297.8 193.95 M295.84 196.22 C296.26 195.71, 297 195.01, 297.8 193.95" stroke="#ffec99" stroke-width="0.5" fill="none"/><path d="M0 0 C93.76 0.54, 189.59 0.88, 297.6 0 M0 0 C86.57 1.82, 171.94 0.97, 297.6 0 M297.6 0 C297.16 72.21, 298.1 147.8, 297.6 196.27 M297.6 0 C297.66 43.85, 298.73 88.75, 297.6 196.27 M297.6 196.27 C232.72 197.23, 169.57 195.99, 0 196.27 M297.6 196.27 C188.82 194.57, 81.29 195.12, 0 196.27 M0 196.27 C0.9 155.13, -0.31 114.07, 0 0 M0 196.27 C1.01 127.93, 1.49 61.66, 0 0" stroke="#1e1e1e" stroke-width="1" fill="none"/></g><g stroke-linecap="round" transform="translate(10 10) rotate(0 490.66809082031244 234.60781860351562)"><path d="M0 0 C209.7 -0.99, 419.39 -0.92, 981.34 0 M981.34 0 C979.84 178.38, 979.42 357.24, 981.34 469.22 M981.34 469.22 C655.58 471.85, 329.13 470.82, 0 469.22 M0 469.22 C2.42 311.56, 2.43 153.33, 0 0" stroke="#1e1e1e" stroke-width="1.5" fill="none" stroke-dasharray="8 9"/></g><g stroke-linecap="round" transform="translate(1547.595458984375 249.17205810546875) rotate(0 121.41180419921875 26.4732666015625)"><path d="M0 0 C0 0, 0 0, 0 0 M0 0 C0 0, 0 0, 0 0 M-0.26 6.4 C1.25 3.82, 2.71 2.3, 4.99 0.36 M-0.26 6.4 C1.5 5, 2.42 3.32, 4.99 0.36 M0.13 12.04 C4.92 6.06, 7.05 2.94, 10.63 -0.03 M0.13 12.04 C3.29 8.92, 5.72 5.95, 10.63 -0.03 M-0.13 18.44 C4.16 12.23, 9.75 5.99, 15.62 0.33 M-0.13 18.44 C6.41 11.78, 11.96 5.91, 15.62 0.33 M0.27 24.08 C6.04 20.76, 8.03 12.11, 21.26 -0.07 M0.27 24.08 C6.69 15.47, 13.88 7.64, 21.26 -0.07 M0 30.48 C7.11 22.15, 17.14 13.43, 26.25 0.29 M0 30.48 C9.02 19.75, 18.44 9.04, 26.25 0.29 M-0.26 36.88 C8.36 29.96, 14.54 19.91, 31.89 -0.1 M-0.26 36.88 C9.37 27.17, 16.51 16.19, 31.89 -0.1 M0.14 42.52 C12.06 25.93, 27.16 12.58, 36.88 0.26 M0.14 42.52 C10.32 30.79, 20.43 18.2, 36.88 0.26 M-0.12 48.92 C16.47 29.61, 29.15 12.36, 42.52 -0.14 M-0.12 48.92 C10.25 37.43, 20.14 24.82, 42.52 -0.14 M1.58 53.05 C21.2 33.09, 38.53 9.57, 47.51 0.22 M1.58 53.05 C17.49 33.92, 33.32 14.92, 47.51 0.22 M6.57 53.41 C26.24 34.29, 43.77 13.97, 53.15 -0.17 M6.57 53.41 C18.99 41.11, 31.11 27.48, 53.15 -0.17 M12.21 53.02 C29.81 30.85, 49.5 9.79, 58.14 0.19 M12.21 53.02 C27.87 35.06, 43.19 17.86, 58.14 0.19 M17.2 53.38 C36.38 30.85, 55.38 9.52, 63.78 -0.21 M17.2 53.38 C34.34 33.18, 52.72 11.61, 63.78 -0.21 M22.84 52.98 C37.19 33.18, 54.91 15.77, 68.77 0.15 M22.84 52.98 C39.91 34.42, 56.9 15.17, 68.77 0.15 M27.83 53.34 C42.66 35.02, 56.67 18.47, 74.41 -0.24 M27.83 53.34 C44.72 33.46, 63.59 12.2, 74.41 -0.24 M33.47 52.95 C50.53 32.92, 68.36 9.34, 79.4 0.12 M33.47 52.95 C49.16 34.52, 66.31 15.44, 79.4 0.12 M38.46 53.31 C54.7 32.52, 71.73 11.01, 85.04 -0.28 M38.46 53.31 C51.7 37.95, 64.16 21.9, 85.04 -0.28 M44.1 52.91 C55.9 36.69, 68.93 22.44, 90.03 0.08 M44.1 52.91 C61.06 30.98, 80 12.25, 90.03 0.08 M49.09 53.27 C63.72 39.62, 75.95 21.81, 95.67 -0.31 M49.09 53.27 C65.77 33.59, 83.51 12.77, 95.67 -0.31 M54.73 52.88 C71.9 35.47, 88.78 14.78, 100.66 0.05 M54.73 52.88 C69.31 34.82, 85.41 17.67, 100.66 0.05 M59.72 53.24 C70.62 39.72, 82.66 29.07, 106.3 -0.34 M59.72 53.24 C69.97 40.5, 82.3 28.07, 106.3 -0.34 M65.36 52.84 C78.59 38.45, 90.97 23.16, 111.29 0.02 M65.36 52.84 C76.43 41.4, 85.64 30, 111.29 0.02 M70.35 53.2 C80.85 41.52, 93.93 29.01, 116.27 0.38 M70.35 53.2 C83.09 36.91, 98.39 21.65, 116.27 0.38 M75.99 52.81 C88.8 36.41, 103.88 17.41, 121.92 -0.02 M75.99 52.81 C85.73 41.45, 97.48 28.85, 121.92 -0.02 M80.98 53.17 C94.64 37.37, 107.35 25.49, 126.91 0.34 M80.98 53.17 C93.05 37.41, 106.46 23.07, 126.91 0.34 M86.62 52.78 C101.97 35.44, 121.16 15, 132.55 -0.05 M86.62 52.78 C103.04 33, 120.78 14.15, 132.55 -0.05 M91.61 53.14 C106.6 34.88, 124.13 15.98, 137.54 0.31 M91.61 53.14 C107.4 34.83, 123.07 16.59, 137.54 0.31 M96.6 53.5 C116.42 33.15, 133.71 13.14, 143.18 -0.09 M96.6 53.5 C113.97 33.97, 129.92 14.54, 143.18 -0.09 M102.24 53.1 C117.62 33.28, 136.24 13.81, 148.17 0.27 M102.24 53.1 C119.27 33.18, 138.51 11.86, 148.17 0.27 M107.23 53.46 C117.45 40.46, 130.43 25.15, 153.81 -0.12 M107.23 53.46 C122.51 35.55, 137.01 18.11, 153.81 -0.12 M112.87 53.07 C123.85 38.53, 136.56 24.96, 158.8 0.24 M112.87 53.07 C126.38 37.27, 141.93 20.47, 158.8 0.24 M117.86 53.43 C131.12 36.13, 146.56 22.33, 164.44 -0.16 M117.86 53.43 C134.03 35.15, 150.04 16.72, 164.44 -0.16 M123.5 53.03 C137.7 36.54, 152.97 18.62, 169.43 0.2 M123.5 53.03 C137.34 36.65, 150.85 21.47, 169.43 0.2 M128.49 53.39 C143.07 35.88, 157.76 16.56, 175.07 -0.19 M128.49 53.39 C142.58 38.37, 155.83 21.95, 175.07 -0.19 M134.13 53 C147.09 39.32, 154.91 27.68, 180.06 0.17 M134.13 53 C146.14 40.02, 158.1 25.32, 180.06 0.17 M139.12 53.36 C153.2 38.94, 164.22 27.66, 185.7 -0.23 M139.12 53.36 C148.06 42.85, 158.02 31.2, 185.7 -0.23 M144.76 52.96 C157.59 40.55, 169.41 27.44, 190.69 0.13 M144.76 52.96 C158.61 35.47, 173.84 18.52, 190.69 0.13 M149.75 53.32 C158.92 43.39, 169.97 30.8, 196.33 -0.26 M149.75 53.32 C162.33 39.48, 175.24 24.91, 196.33 -0.26 M155.39 52.93 C166.64 42.43, 174.6 28.69, 201.32 0.1 M155.39 52.93 C168.86 36.34, 182.48 21.2, 201.32 0.1 M160.38 53.29 C175.67 39.43, 190.02 20.39, 206.96 -0.3 M160.38 53.29 C173.13 39.33, 187.07 23.64, 206.96 -0.3 M166.02 52.89 C178.85 37.19, 194.56 19.6, 211.95 0.06 M166.02 52.89 C179.01 38.47, 191.86 24.58, 211.95 0.06 M171.01 53.25 C190.54 33.54, 206.7 13.03, 217.59 -0.33 M171.01 53.25 C188.44 34, 205.62 13.55, 217.59 -0.33 M176.65 52.86 C195.77 33.56, 213.49 11.83, 222.58 0.03 M176.65 52.86 C185.46 41.32, 195.25 31.28, 222.58 0.03 M181.64 53.22 C194.77 36.29, 211.51 20.6, 228.22 -0.36 M181.64 53.22 C193.33 39.28, 207.17 24.94, 228.22 -0.36 M187.28 52.83 C203.05 35.07, 217.34 17.71, 233.21 0 M187.28 52.83 C202.7 33.9, 219.5 16.13, 233.21 0 M192.27 53.19 C207.01 35.58, 222.69 18.28, 238.19 0.36 M192.27 53.19 C205.01 39.09, 215.6 24.8, 238.19 0.36 M197.91 52.79 C216.45 32.49, 232.65 12.4, 243.18 0.72 M197.91 52.79 C215.05 33.19, 231.77 13.06, 243.18 0.72 M202.9 53.15 C214.8 41.83, 225.18 29.04, 243.57 6.36 M202.9 53.15 C212.05 43.07, 220.6 32.45, 243.57 6.36 M208.54 52.76 C219.47 37.76, 233.75 22.87, 243.31 12.76 M208.54 52.76 C219.49 42.08, 227.27 31.05, 243.31 12.76 M213.53 53.12 C220.95 45.71, 227.26 37.32, 243.71 18.4 M213.53 53.12 C224.49 39.66, 235.59 27.47, 243.71 18.4 M218.52 53.48 C225.12 47.28, 231.53 39.59, 243.45 24.8 M218.52 53.48 C226.98 45.74, 233.35 36.56, 243.45 24.8 M224.16 53.08 C227.98 44.63, 236.72 40.05, 243.18 31.2 M224.16 53.08 C230.53 45.55, 238.22 38.82, 243.18 31.2 M229.15 53.44 C234.9 47.62, 237.28 42.95, 243.58 36.84 M229.15 53.44 C233.62 48.22, 238.65 41.66, 243.58 36.84 M234.79 53.05 C236.83 50.67, 241.06 46.95, 243.32 43.24 M234.79 53.05 C237.31 50.57, 239.33 47.47, 243.32 43.24 M239.78 53.41 C241.06 52.21, 241.9 50.62, 243.06 49.63 M239.78 53.41 C240.67 52.58, 241.39 51.43, 243.06 49.63" stroke="#ffec99" stroke-width="0.5" fill="none"/><path d="M0 0 C85.83 -1.17, 167.75 0.61, 242.82 0 M0 0 C76.23 -1.22, 152.05 -1.37, 242.82 0 M242.82 0 C244.61 20.84, 241.64 40.18, 242.82 52.95 M242.82 0 C241.58 12.41, 242.61 23, 242.82 52.95 M242.82 52.95 C169.02 53.1, 95.22 55.4, 0 52.95 M242.82 52.95 C153.51 52.79, 63.03 52.32, 0 52.95 M0 52.95 C0.94 40.24, 1.06 28.54, 0 0 M0 52.95 C-0.12 38.44, 0.73 22.74, 0 0" stroke="#1e1e1e" stroke-width="1" fill="none"/></g><g stroke-linecap="round" transform="translate(1545.3452758789062 153.3030242919922) rotate(0 124.60687255859375 33.31980895996094)"><path d="M0 0 C0 0, 0 0, 0 0 M0 0 C0 0, 0 0, 0 0 M-0.26 6.4 C2.21 3.76, 3.11 2.02, 4.99 0.36 M-0.26 6.4 C1.07 4.84, 2.56 3.85, 4.99 0.36 M0.13 12.04 C3.83 6.34, 8.56 4.8, 10.63 -0.03 M0.13 12.04 C4.28 6.73, 7.96 1.97, 10.63 -0.03 M-0.13 18.44 C4.13 12.89, 10.92 5.49, 15.62 0.33 M-0.13 18.44 C4.83 13.53, 9.35 7.34, 15.62 0.33 M0.27 24.08 C8.89 15.59, 15.67 6.09, 21.26 -0.07 M0.27 24.08 C5.51 18.28, 10.89 10.23, 21.26 -0.07 M0 30.48 C7.18 19.81, 17.3 11.47, 26.25 0.29 M0 30.48 C8.67 19.74, 18.53 8.28, 26.25 0.29 M-0.26 36.88 C10.05 25.88, 15.22 18.7, 31.89 -0.1 M-0.26 36.88 C10.25 24.91, 19.47 13.75, 31.89 -0.1 M0.14 42.52 C10.57 32.69, 18.29 22.11, 36.88 0.26 M0.14 42.52 C15.69 25.62, 28.91 8.55, 36.88 0.26 M-0.12 48.92 C11.04 39.81, 19.21 28.55, 42.52 -0.14 M-0.12 48.92 C10.3 38.4, 19.01 26.05, 42.52 -0.14 M0.27 54.56 C10.13 45.12, 17.65 30.22, 47.51 0.22 M0.27 54.56 C16.54 36.32, 32.35 19.02, 47.51 0.22 M0.01 60.96 C18.29 40.22, 32.29 22.92, 53.15 -0.17 M0.01 60.96 C10.84 47.74, 23.19 34.9, 53.15 -0.17 M0.4 66.6 C20.23 44.3, 39.38 19.32, 58.14 0.19 M0.4 66.6 C15.47 48.91, 32.62 29.03, 58.14 0.19 M5.39 66.96 C27.88 43.09, 47.87 17.31, 63.78 -0.21 M5.39 66.96 C25.04 44.4, 45.07 21.42, 63.78 -0.21 M11.03 66.57 C29.06 43.9, 50.43 23.25, 68.77 0.15 M11.03 66.57 C30.51 46.53, 47.9 25.4, 68.77 0.15 M16.02 66.93 C38.2 41.38, 58.59 14.28, 74.41 -0.24 M16.02 66.93 C36.76 43.93, 56.09 19.95, 74.41 -0.24 M21.66 66.53 C35.66 50.71, 45.19 39.76, 79.4 0.12 M21.66 66.53 C38.38 45.25, 57.09 24.96, 79.4 0.12 M26.65 66.89 C42.95 47.78, 60.02 24.25, 85.04 -0.28 M26.65 66.89 C43.2 47.29, 59.22 29.55, 85.04 -0.28 M32.29 66.5 C54.26 38.7, 76.84 12.14, 90.03 0.08 M32.29 66.5 C48.44 46.62, 65.42 27.23, 90.03 0.08 M37.28 66.86 C53.84 47.99, 68.06 31.05, 95.67 -0.31 M37.28 66.86 C49.83 51.25, 64.11 36.13, 95.67 -0.31 M42.92 66.46 C60.54 46.23, 80.39 23.74, 100.66 0.05 M42.92 66.46 C61.31 46.12, 77.2 26.13, 100.66 0.05 M47.91 66.82 C70.61 42.99, 91.04 17.65, 106.3 -0.34 M47.91 66.82 C69.61 41.4, 91.44 16.19, 106.3 -0.34 M52.9 67.18 C71.07 49.55, 88.31 27.66, 111.29 0.02 M52.9 67.18 C72.52 46.53, 89.52 25.1, 111.29 0.02 M58.54 66.79 C76.19 45.75, 93.27 26.02, 116.27 0.38 M58.54 66.79 C81.63 40.12, 104.33 13.33, 116.27 0.38 M63.53 67.15 C81.27 46.73, 98.38 27.27, 121.92 -0.02 M63.53 67.15 C80.88 46.69, 99.92 24.78, 121.92 -0.02 M69.17 66.76 C87.89 44, 105.43 23.76, 126.91 0.34 M69.17 66.76 C81.07 52.44, 94.09 37.16, 126.91 0.34 M74.16 67.12 C86.1 52.79, 99.02 40.82, 132.55 -0.05 M74.16 67.12 C88.5 49.34, 105.51 31.5, 132.55 -0.05 M79.8 66.72 C92.52 52.15, 104.18 40.56, 137.54 0.31 M79.8 66.72 C95.41 48.38, 112.1 30.44, 137.54 0.31 M84.79 67.08 C103.48 42.98, 122.97 21.34, 143.18 -0.09 M84.79 67.08 C102.23 47.68, 119.38 29.35, 143.18 -0.09 M90.43 66.69 C113.21 40.25, 133.75 13.43, 148.17 0.27 M90.43 66.69 C104.95 51.35, 118.13 36, 148.17 0.27 M95.42 67.05 C111.92 45.87, 131.04 26.11, 153.81 -0.12 M95.42 67.05 C111.85 47.5, 129.59 28.86, 153.81 -0.12 M101.06 66.65 C115.41 51.93, 127.36 35.29, 158.8 0.24 M101.06 66.65 C118.5 45.94, 137.08 27.08, 158.8 0.24 M106.05 67.01 C128.2 40.89, 151.5 16.11, 164.44 -0.16 M106.05 67.01 C128.16 42.76, 148.61 17.82, 164.44 -0.16 M111.69 66.62 C123.3 50.9, 138.58 35.27, 169.43 0.2 M111.69 66.62 C129.2 46.15, 148.57 24.72, 169.43 0.2 M116.68 66.98 C137.26 46.15, 156 24.5, 175.07 -0.19 M116.68 66.98 C140.22 40.02, 163.21 14.46, 175.07 -0.19 M122.32 66.58 C142.49 42.71, 160.17 20.1, 180.06 0.17 M122.32 66.58 C132.92 53.71, 144.48 39.52, 180.06 0.17 M127.31 66.94 C146.67 44.05, 164.35 23, 185.7 -0.23 M127.31 66.94 C151.38 39.17, 173.87 13.43, 185.7 -0.23 M132.95 66.55 C147.14 49.98, 158.25 34.68, 190.69 0.13 M132.95 66.55 C154.74 41.2, 176.5 16.13, 190.69 0.13 M137.94 66.91 C154.55 49.1, 173.74 27.51, 196.33 -0.26 M137.94 66.91 C151.32 53.17, 163.41 38.33, 196.33 -0.26 M143.58 66.51 C164.33 42.52, 182.45 21.89, 201.32 0.1 M143.58 66.51 C162.05 45.65, 182.4 23.9, 201.32 0.1 M148.57 66.87 C169.92 41.49, 194.15 15.35, 206.96 -0.3 M148.57 66.87 C162.67 51.8, 174.4 35.76, 206.96 -0.3 M154.21 66.48 C168.38 47.01, 187.82 30.45, 211.95 0.06 M154.21 66.48 C166.34 53.62, 178.22 39.68, 211.95 0.06 M159.2 66.84 C174.02 48.15, 186.93 32.05, 217.59 -0.33 M159.2 66.84 C172.34 51.95, 186.37 36.18, 217.59 -0.33 M164.19 67.2 C177.18 50.59, 196.17 33.36, 222.58 0.03 M164.19 67.2 C180.67 49.12, 195.22 29.38, 222.58 0.03 M169.83 66.8 C190.02 42.57, 212.29 17.1, 228.22 -0.36 M169.83 66.8 C192.57 41.26, 215.22 14.41, 228.22 -0.36 M174.82 67.16 C191.97 47.21, 204.93 32.16, 233.21 0 M174.82 67.16 C189.64 50.09, 202.55 35.12, 233.21 0 M180.46 66.77 C197.75 42.92, 218.65 23.31, 238.19 0.36 M180.46 66.77 C193.71 50.98, 205.54 37.83, 238.19 0.36 M185.45 67.13 C196.54 54.56, 211.02 39.5, 243.84 -0.04 M185.45 67.13 C203.03 47.17, 221.78 26.23, 243.84 -0.04 M191.09 66.74 C215.9 39.11, 235.18 15.38, 248.82 0.32 M191.09 66.74 C205.52 50.64, 219.87 34.91, 248.82 0.32 M196.08 67.1 C209.88 52.09, 221.33 41.56, 249.87 5.21 M196.08 67.1 C215.56 45.62, 235.84 23.34, 249.87 5.21 M201.72 66.7 C214.82 52.14, 226.71 38.17, 249.61 11.61 M201.72 66.7 C218.25 47.07, 234.01 28.64, 249.61 11.61 M206.71 67.06 C221.58 48.23, 240.21 31.17, 250.01 17.25 M206.71 67.06 C221.87 50.85, 236.6 33.28, 250.01 17.25 M212.35 66.67 C226.68 53.17, 240.33 35.9, 249.75 23.65 M212.35 66.67 C219.55 58.35, 227.09 47.87, 249.75 23.65 M217.34 67.03 C228.82 53.96, 236.8 45.05, 250.14 29.29 M217.34 67.03 C226.55 55.8, 236.67 46.48, 250.14 29.29 M222.98 66.63 C230.14 55.38, 240.82 45.44, 249.88 35.69 M222.98 66.63 C229.11 58.6, 238.26 50.47, 249.88 35.69 M227.97 66.99 C235.06 57.82, 238.29 53.8, 249.62 42.09 M227.97 66.99 C235.03 59.03, 240.83 51.92, 249.62 42.09 M233.61 66.6 C239.98 62.78, 244.61 55.73, 250.01 47.73 M233.61 66.6 C238.92 59.69, 244.85 52.65, 250.01 47.73 M238.6 66.96 C242.11 62.11, 244.7 60.78, 249.75 54.13 M238.6 66.96 C240.27 63.54, 244.24 60.97, 249.75 54.13 M244.24 66.56 C246.53 63.69, 247.76 63.4, 250.14 59.77 M244.24 66.56 C246.04 64.71, 247.56 62.68, 250.14 59.77" stroke="#ffec99" stroke-width="0.5" fill="none"/><path d="M0 0 C95.78 3.48, 189.58 1.67, 249.21 0 M0 0 C52.52 2.03, 104.42 1.53, 249.21 0 M249.21 0 C250.94 21.16, 248.39 41.63, 249.21 66.64 M249.21 0 C248.27 19.62, 249.41 38.94, 249.21 66.64 M249.21 66.64 C155.16 65.87, 61.16 67.77, 0 66.64 M249.21 66.64 C172.61 64.13, 95.47 64.03, 0 66.64 M0 66.64 C-0.15 50.63, 1.79 32.16, 0 0 M0 66.64 C1.04 41.06, 0.86 16.62, 0 0" stroke="#1e1e1e" stroke-width="1" fill="none"/></g><g stroke-linecap="round"><g transform="translate(1477.3043518066406 182.1566237765104) rotate(0 33.31973266601561 1.0403319077655624)"><path d="M0 0 C26.34 -1.17, 51.42 0.47, 66.64 2.08 M0 0 C15.32 1.76, 30.98 0.65, 66.64 2.08" stroke="#1e1e1e" stroke-width="1" fill="none"/></g></g><mask/><g stroke-linecap="round"><g transform="translate(1478.2173156738281 273.37950859918493) rotate(0 34.18907165527343 0.16503687452862437)"><path d="M0 0 C16.18 -1.04, 33.68 -0.86, 68.38 0.33 M0 0 C16.83 -0.19, 33.02 -0.39, 68.38 0.33" stroke="#1e1e1e" stroke-width="1" fill="none"/></g></g><mask/><g stroke-linecap="round"><g transform="translate(998.2253723144531 205.5594766416989) rotate(0 68.9217529296875 -0.03362048602480172)"><path d="M0 0 C29.48 -0.9, 57.05 -1.99, 137.84 -0.07 M0 0 C47.31 0.62, 93.51 1.31, 137.84 -0.07" stroke="#1e1e1e" stroke-width="4" fill="none"/></g><g transform="translate(998.2253723144531 205.5594766416989) rotate(0 68.9217529296875 -0.03362048602480172)"><path d="M136.07 -1.91 L123.49 5.09 L124.95 -5.9 L139.25 0.35" stroke="none" stroke-width="0" fill="#1e1e1e" fill-rule="evenodd"/><path d="M137.84 -0.07 C136.12 0.61, 132.97 1.15, 124.37 6.52 M137.84 -0.07 C133.44 1.91, 128.23 4.69, 124.37 6.52 M124.37 6.52 C123.67 3.38, 124.63 -1.14, 124.14 -6.16 M124.37 6.52 C124.53 3.3, 124.89 -0.62, 124.14 -6.16 M124.14 -6.16 C128.7 -2.88, 133.83 -2.15, 137.84 -0.07 M124.14 -6.16 C126.83 -4.72, 130.64 -3.13, 137.84 -0.07 M137.84 -0.07 C137.84 -0.07, 137.84 -0.07, 137.84 -0.07 M137.84 -0.07 C137.84 -0.07, 137.84 -0.07, 137.84 -0.07" stroke="#1e1e1e" stroke-width="4" fill="none"/></g></g><mask/><g stroke-linecap="round"><g transform="translate(570.6232426716731 80.67788329491248) rotate(0 112.35332782451923 0)"><path d="M0 0 C57.4 -2.75, 112.61 -1.31, 224.71 0 M0 0 C79.58 -0.28, 159.07 -0.77, 224.71 0" stroke="#1e1e1e" stroke-width="1" fill="none"/></g></g><mask/><g stroke-linecap="round"><g transform="translate(40.52136091085595 313.80013671288077) rotate(0 134.12179800180297 0)"><path d="M0 0 C63.93 0.42, 129.24 1.17, 268.24 0 M0 0 C96.11 -0.23, 191.42 -0.32, 268.24 0" stroke="#1e1e1e" stroke-width="1" fill="none"/></g></g><mask/><g stroke-linecap="round"><g transform="translate(373.3681344985964 312.39571776756827) rotate(0 132.01514610877405 0)"><path d="M0 0 C104.36 0.64, 208.77 -0.47, 264.03 0 M0 0 C74.99 -0.85, 149.01 -1.6, 264.03 0" stroke="#1e1e1e" stroke-width="1" fill="none"/></g></g><mask/><g stroke-linecap="round"><g transform="translate(685.5530428519618 315.41776554401054) rotate(0 117.26881760817304 0)"><path d="M0 0 C75.99 -1.27, 156.4 1.29, 234.54 0 M0 0 C48.42 -0.8, 96.04 -2.02, 234.54 0" stroke="#1e1e1e" stroke-width="1" fill="none"/></g></g><mask/><g stroke-linecap="round"><g transform="translate(1179.5033884048464 174.762848927424) rotate(0 147.46375450721155 0)"><path d="M0 0 C67.04 -1.48, 133.56 -0.83, 294.93 0 M0 0 C59.33 -2.27, 118.82 -1.81, 294.93 0" stroke="#1e1e1e" stroke-width="1" fill="none"/></g></g><mask/><g stroke-linecap="round"><g transform="translate(1546.0561227798464 176.1672678727365) rotate(0 124.99305138221155 0)"><path d="M0 0 C78.09 -0.97, 158.12 -1.33, 249.99 0 M0 0 C98.53 0.92, 197.99 1.4, 249.99 0" stroke="#1e1e1e" stroke-width="1" fill="none"/></g></g><mask/><g stroke-linecap="round"><g transform="translate(1548.864866770231 268.8587774130009) rotate(0 120.77984149639428 0)"><path d="M0 0 C80.95 -0.97, 163.98 -0.62, 241.56 0 M0 0 C96.26 -1.69, 191.05 -1.41, 241.56 0" stroke="#1e1e1e" stroke-width="1" fill="none"/></g></g><mask/></svg>